<svg id="Outline_1_" xmlns="http://www.w3.org/2000/svg" width="8.312" height="8.312" viewBox="0 0 8.312 8.312">
  <g id="Grupo_339" data-name="Grupo 339">
    <path id="Caminho_3344" data-name="Caminho 3344" d="M6.156,2a4.156,4.156,0,1,0,4.156,4.156A4.152,4.152,0,0,0,6.156,2Zm0,7.481A3.325,3.325,0,1,1,9.481,6.156,3.329,3.329,0,0,1,6.156,9.481Z" transform="translate(-2 -2)" fill="#ff4311"/>
    <path id="Caminho_3345" data-name="Caminho 3345" d="M10.57,7,9.078,8.492,7.586,7,7,7.586,8.492,9.078,7,10.57l.586.586L9.078,9.664l1.492,1.492.586-.586L9.664,9.078l1.492-1.492Z" transform="translate(-4.922 -4.922)" fill="#ff4311"/>
  </g>
</svg>
