<svg xmlns="http://www.w3.org/2000/svg" width="86.964" height="15.722" viewBox="0 0 86.964 15.722">
  <g id="Grupo_1044" data-name="Grupo 1044" transform="translate(0 1.722)">
    <path id="facebook-f" d="M31.457,8.844,31.933,6H28.96V4.152c0-.778.415-1.537,1.747-1.537h1.351V.192A17.9,17.9,0,0,0,29.659,0c-2.448,0-4.048,1.363-4.048,3.83V6H22.89V8.844h2.721v6.879H28.96V8.844Z" transform="translate(15.11 -1.722)" fill="#fff"/>
    <path id="twitter" d="M16.4,51.571c.012.153.012.306.012.459A10.275,10.275,0,0,1,5.751,62.082,11.051,11.051,0,0,1,0,60.5a8.211,8.211,0,0,0,.9.044,7.792,7.792,0,0,0,4.65-1.509,3.732,3.732,0,0,1-3.5-2.45,5,5,0,0,0,.707.055,4.186,4.186,0,0,0,.986-.12,3.592,3.592,0,0,1-3-3.467V53a3.945,3.945,0,0,0,1.693.448A3.483,3.483,0,0,1,.765,50.51a3.356,3.356,0,0,1,.51-1.783A10.87,10.87,0,0,0,9,52.424a3.771,3.771,0,0,1-.093-.809,3.642,3.642,0,0,1,3.745-3.533A3.844,3.844,0,0,1,15.387,49.2a7.649,7.649,0,0,0,2.377-.853,3.569,3.569,0,0,1-1.647,1.947,7.866,7.866,0,0,0,2.157-.547A7.818,7.818,0,0,1,16.4,51.571Z" transform="translate(0 -48.082)" fill="#fff"/>
    <path id="youtube" d="M32.522,66.191a2.394,2.394,0,0,0-1.588-1.772C29.532,64,23.915,64,23.915,64s-5.617,0-7.018.419a2.394,2.394,0,0,0-1.588,1.772,31.18,31.18,0,0,0,0,9.647A2.353,2.353,0,0,0,16.9,77.581C18.3,78,23.915,78,23.915,78s5.617,0,7.018-.419a2.353,2.353,0,0,0,1.588-1.743,31.18,31.18,0,0,0,0-9.647ZM22.078,73.975V68.054l4.7,2.961Z" transform="translate(54.067 -64)" fill="#fff"/>
  </g>
</svg>
