<svg xmlns="http://www.w3.org/2000/svg" width="18.274" height="14" viewBox="0 0 18.274 14">
  <path id="twitter" d="M16.4,51.571c.012.153.012.306.012.459A10.275,10.275,0,0,1,5.751,62.082,11.051,11.051,0,0,1,0,60.5a8.211,8.211,0,0,0,.9.044,7.792,7.792,0,0,0,4.65-1.509,3.732,3.732,0,0,1-3.5-2.45,5,5,0,0,0,.707.055,4.186,4.186,0,0,0,.986-.12,3.592,3.592,0,0,1-3-3.467V53a3.945,3.945,0,0,0,1.693.448A3.483,3.483,0,0,1,.765,50.51a3.356,3.356,0,0,1,.51-1.783A10.87,10.87,0,0,0,9,52.424a3.771,3.771,0,0,1-.093-.809,3.642,3.642,0,0,1,3.745-3.533A3.844,3.844,0,0,1,15.387,49.2a7.649,7.649,0,0,0,2.377-.853,3.569,3.569,0,0,1-1.647,1.947,7.866,7.866,0,0,0,2.157-.547A7.818,7.818,0,0,1,16.4,51.571Z" transform="translate(0 -48.082)" fill="#fff"/>
</svg>
