<svg xmlns="http://www.w3.org/2000/svg" width="466.865" height="335" viewBox="0 0 466.865 335">
  <g id="img-slider-1" transform="translate(-698.011 -145.588)">
    <path id="Caminho_280" data-name="Caminho 280" d="M5374.841,1755.241c-1.417,1.826-2.6,6.187-3.541,8.621-1.062,2.333-1.18,9.534-1.417,11.055a60.168,60.168,0,0,0,.472,6.491l7.555,1.116s.59-3.651,2.6-5.68c2.125-2.13,6.374-7,5.312-8.824-1.653-3.043-10.741-2.739-10.741-2.739s.472-2.434.708-4.158c.118-1.724,2.715-4.97,1.771-6.085A1.782,1.782,0,0,0,5374.841,1755.241Z" transform="translate(-4505.528 -1529.223)" fill="#ffb3c5"/>
    <path id="Caminho_288" data-name="Caminho 288" d="M5427.473,3552.93h-13.811c-5.193,0-9.443-3.652-9.443-8.216v-36l-57.366-.71v36.715c0,4.564-4.367,8.216-9.561,8.216h-12.512c-12.512,0-22.781,8.722-22.781,19.574h148.254C5450.254,3561.652,5440.1,3552.93,5427.473,3552.93Z" transform="translate(-4445.672 -3104.898)" fill="#2e2e2e"/>
    <path id="Caminho_289" data-name="Caminho 289" d="M6605,1912.222h144.358V1661H6605Z" transform="translate(-5594.87 -1445.225)" fill="#eee"/>
    <path id="Caminho_307" data-name="Caminho 307" d="M3983.321,2114.55l-17.587,2.13a3.114,3.114,0,0,1-3.541-2.333l-1.417-8.621a2.772,2.772,0,0,1,2.715-3.042l17.47-2.13a2.983,2.983,0,0,1,3.541,2.231l1.535,8.722A2.825,2.825,0,0,1,3983.321,2114.55Z" transform="translate(-3262.735 -1840.153)" fill="#ff4311"/>
    <path id="Caminho_308" data-name="Caminho 308" d="M4045.145,2147.076a.721.721,0,0,0,.236-.507c0-.2-.236-.406-.472-.507l-6.964-2.434a.888.888,0,0,0-.708.1.723.723,0,0,0-.236.507l1.062,6.491a.869.869,0,0,0,.472.406.623.623,0,0,0,.708-.1Z" transform="translate(-3329.988 -1878.866)" fill="#fff"/>
    <path id="Caminho_310" data-name="Caminho 310" d="M4978.526,2217.09h-253.9c-6.964,0-12.63-4.868-12.63-10.852V2078.852c0-6.085,5.666-10.852,12.63-10.852h253.9c6.964,0,12.63,4.767,12.63,10.852v127.386C4991.156,2212.222,4985.491,2217.09,4978.526,2217.09Z" transform="translate(-3925.313 -1810.946)" fill="#262626"/>
    <path id="Caminho_311" data-name="Caminho 311" d="M4777.548,2264.92c-3.069,0-5.548-2.13-5.548-4.767V2132.767c0-2.637,2.479-4.767,5.548-4.767h253.9c2.951,0,5.548,2.13,5.548,4.767v127.386c0,2.637-2.6,4.767-5.548,4.767Z" transform="translate(-3978.231 -1864.861)" fill="#eee"/>
    <path id="Caminho_312" data-name="Caminho 312" d="M5477,2345.954h166.077V2228H5477Z" transform="translate(-4600.015 -1954.719)" fill="#d8d5d5"/>
    <path id="Caminho_313" data-name="Caminho 313" d="M4549.822,3971H4486.79c-4.367,0-7.79,3.144-7.79,7h0c0,3.854,3.423,7,7.79,7h63.032A12.17,12.17,0,0,1,4549.822,3971Z" transform="translate(-3719.816 -3520.94)" fill="#fae0b2"/>
    <path id="Caminho_314" data-name="Caminho 314" d="M4035,4139.116h0a1.191,1.191,0,0,0,1.18,1.014H4493.1V4138H4036.18A1.2,1.2,0,0,0,4035,4139.116Z" transform="translate(-3328.224 -3671.003)" fill="#262626"/>
    <path id="Caminho_315" data-name="Caminho 315" d="M5673.065,2834.312h22.427l-.944-3.144,6.138-23.327,8.617-46.147L5681.918,2755l-7.2,16.126s-4.722,38.439-2.006,61.36Q5672.888,2833.247,5673.065,2834.312Z" transform="translate(-4771.883 -2428.27)" fill="#2e2e2e"/>
    <path id="Caminho_316" data-name="Caminho 316" d="M5822.375,2841.5l-1.3-3.246-2.715-57.3L5812.224,2763l-31.4.609-.826,14.2,20.893,63.693Z" transform="translate(-4867.25 -2435.458)" fill="#262626"/>
    <path id="Caminho_317" data-name="Caminho 317" d="M5414.353,1997.706l-31.752,15.72L5372.332,1983l-11.332.609s6.374,44.322,12.158,47.465c7.318,3.956,34.23-4.665,34.23-4.665Z" transform="translate(-4497.708 -1734.567)" fill="#ff4311"/>
    <path id="Caminho_318" data-name="Caminho 318" d="M5740.89,2113.2s10.505,1.217,12.984,2.738c2.715,1.724,11.214,9.838,11.214,9.838s-17.706,43.814-17.116,51.624c.708,7.809,2.715,19.372,2.715,19.372s-34.585,1.927-47.687-2.536c0,0,4.131-17.647,4.131-22.313s6.02-50.406,7.672-52.841,12.512-6.086,12.512-6.086Z" transform="translate(-4799.339 -1851.382)" fill="#eee"/>
    <path id="Caminho_319" data-name="Caminho 319" d="M5620.989,2231.156c-.118-.913,7.2-45.133,7.318-46.756,1.535-15.517,8.263-62.881,14.637-69.474a11.168,11.168,0,0,1,4.722-1.319c3.541-.406,7.318-.608,7.318-.608s-4.485,2.941-5.548,4.26c-4.721,5.781-6.728,12.475-7.79,19.676-2.952,20.69-5.784,96.148-6.847,96.452C5633.619,2233.793,5621.579,2233.286,5620.989,2231.156Z" transform="translate(-4727.007 -1851.382)" fill="#ff4311"/>
    <path id="Caminho_320" data-name="Caminho 320" d="M5868.24,1710.44s6.256-3.753,8.971,2.738a21.952,21.952,0,0,1,2.6,0c1.3.406,2.479,1.623,3.659,2.231,4.131,2.231,6.02,6.694,6.256,10.751.354,4.868-2.007,8.519-5.784,12.069a18.932,18.932,0,0,1-3.777,2.738c-1.771.811-3.187.2-4.839.507-1.417.3-1.889,1.521-3.541,1.116-2.243-.609-4.6-3.144-7.437-2.739-2.95.3-9.443-1.826-9.443-1.826-8.5-2.84-2.833-16.836-1.18-21.806C5855.256,1711.454,5863.047,1708.716,5868.24,1710.44Z" transform="translate(-4929.287 -1488.681)" fill="#2e2e2e"/>
    <path id="Caminho_321" data-name="Caminho 321" d="M5912.287,1963.911l-2.125,5.071-1.18,2.941s-.119,5.071,1.3,6.39c2.36,2.333,12.276-6.187,12.276-6.187l3.069-16.126Z" transform="translate(-4981.006 -1710.305)" fill="#ffb3c5"/>
    <path id="Caminho_322" data-name="Caminho 322" d="M5933.519,1961.274c-3.777,4.97-10.27,7.2-14.519,7.809l2.125-5.172,13.338-7.911Z" transform="translate(-4989.843 -1710.305)" fill="#ea94ad"/>
    <path id="Caminho_323" data-name="Caminho 323" d="M5901.059,1781.647c-5.076-2.637-11.686-.608-13.692,4.057a50.1,50.1,0,0,0-2.714,7.505c-2.007,6.9.472,14.4,4.131,15.112s14.873-1.927,17.823-11.664C5908.377,1790.674,5906.252,1784.487,5901.059,1781.647Z" transform="translate(-4958.918 -1552.586)" fill="#ffb3c5"/>
    <path id="Caminho_324" data-name="Caminho 324" d="M6050.393,1922.1a2.581,2.581,0,0,0,2.007,3.246,2.909,2.909,0,0,0,3.3-2.231,2.7,2.7,0,0,0-1.889-3.347A3.206,3.206,0,0,0,6050.393,1922.1Z" transform="translate(-5105.655 -1677.728)" fill="#ffb3c5"/>
    <path id="Caminho_325" data-name="Caminho 325" d="M5927.118,2115s15.345,1.319,19.24,3.55c2.479,1.42.59,17.039.59,17.039s-3.541,23.632-3.069,35.5a32.04,32.04,0,0,0,.236,3.449c1.3,17.952,12.512,60.955,11.567,61.665-6.374,3.043-40.722,2.941-41.077.507C5911.3,2216.523,5927.118,2115,5927.118,2115Z" transform="translate(-4985.567 -1853.179)" fill="#ff4311"/>
    <path id="Caminho_326" data-name="Caminho 326" d="M6010.774,2623.057v.913a28.352,28.352,0,0,0,.237,3.347L5990,2619Z" transform="translate(-5052.462 -2306.063)" fill="#eb3d0f"/>
    <path id="Caminho_327" data-name="Caminho 327" d="M5787.259,2435.854a9.993,9.993,0,0,1,2.6,1.217,27.411,27.411,0,0,0,2.6,1.014,19.936,19.936,0,0,0,2.6,1.014c0-.1.471-.1-.354-.609a40.453,40.453,0,0,1-4.485-2.231c-.708-.507-2.243-1.521-2.243-1.521s-2.125-1.826-2.125-1.927c.472-.812,2.36.1,3.187.912a16.979,16.979,0,0,1,2.6,1.319s3.895,1.623,4.131,1.116c.118-.2-2.125-1.318-4.131-2.84-1.889-1.319-3.541-2.941-3.305-3.347.472-.507,2.715.812,2.715.812s1.535.913,2.006,1.217a28.946,28.946,0,0,0,2.6,1.319s7.082,2.941,7.2,2.535c.237-.507.237-1.826-.236-2.13a13.333,13.333,0,0,0-1.652-.912c-.59-.3-1.417-1.116-1.062-1.521s3.659.71,3.659.71a8.727,8.727,0,0,1,2.833,1.826c3.069,3.55,2.243,3.854,2.715,4.26.472.507,10.27,3.651,10.27,3.651s29.626,6.288,31.28,6.8l-4.014,10.244c-1.771-.2-34.938-11.664-38.244-12.982,0,0-4.721-.406-7.673-.71-2.833-.3-5.547-1.724-6.374-1.927a28.332,28.332,0,0,1-5.784-2.536c-2.479-1.42.708-1.014.708-1.014s5.312,2.028,5.43,1.623c0-.3-2.951-1.217-5.784-2.84a17.165,17.165,0,0,1-2.125-1.217C5785.016,2436.158,5785.134,2435.042,5787.259,2435.854Z" transform="translate(-4872.148 -2136.102)" fill="#ffb3c5"/>
    <path id="Caminho_328" data-name="Caminho 328" d="M6011.955,2145s4.958.507,9.207,5.883c4.368,5.274,13.811,28.094,16.761,36.816,2.951,8.824,1.535,13.692-5.193,15.112s-42.729-9.737-42.729-9.737l3.422-10.548s23.844,4.463,24.67,4.158l-7.554-11.055S6004.754,2157.677,6011.955,2145Z" transform="translate(-5052.462 -1880.137)" fill="#ff4311"/>
    <path id="Caminho_329" data-name="Caminho 329" d="M5896.2,1963.065s4.722,1.42,5.194,2.941c.354,1.521-.236,3.753-2.6,5.375-2.361,1.724-7.436.71-8.734-.3-1.417-.913-2.479-4.868-1.062-7C5890.3,1961.848,5896.2,1963.065,5896.2,1963.065Z" transform="translate(-4962.796 -1716.356)" fill="#2e2e2e"/>
    <path id="Caminho_330" data-name="Caminho 330" d="M5918.61,1985.276s0,1.724-.708,2.028a7.018,7.018,0,0,1-2.243.609,3.152,3.152,0,0,1-2.833-1.217l-.236-.2a7.507,7.507,0,0,1-.59-2.333,14.877,14.877,0,0,1,3.187-.3A16.361,16.361,0,0,1,5918.61,1985.276Z" transform="translate(-4983.669 -1735.322)" fill="#ffb3c5"/>
    <path id="Caminho_332" data-name="Caminho 332" d="M4313,2759.637a3.664,3.664,0,0,0,.59,1.116,46.884,46.884,0,0,0,5.075,6.187l2.833-5.578s-.472-1.826-1.3-4.361C4317.6,2757.71,4315.006,2758.014,4313,2759.637Z" transform="translate(-3573.41 -2430.067)" fill="#ffb3c5"/>
    <path id="Caminho_333" data-name="Caminho 333" d="M4281.19,2561.448s-15.345,5.984-15.816,5.883c-.354-.1-6.374-9.128-6.374-17.647,0-3.956,4.485-8.621,9.561-7.708,2.479.406,2.479,1.116,6.256,5.984C4278.594,2552.928,4281.19,2561.448,4281.19,2561.448Z" transform="translate(-3525.784 -2236.745)" fill="#5e5e5e"/>
    <path id="Caminho_334" data-name="Caminho 334" d="M4551.062,3792l-.354,5.477c-.118.71-.708,2.434-.708,3.043,0,2.333,12.394-2.028,9.679-3.043-.236-.1-1.534-.811-1.652-1.623-.118-1.319-.472-3.753-.472-3.753Z" transform="translate(-3782.435 -3360.095)" fill="#ffb3c5"/>
    <path id="Caminho_335" data-name="Caminho 335" d="M4556.151,3844.387a31.718,31.718,0,0,1-4.485.913c-1.535.2-3.423-1.318-4.485-.913-1.181.507-1.181,4.564-1.181,4.564s15.7,1.115,20.066-.1C4567.836,3848.444,4562.053,3846.111,4556.151,3844.387Z" transform="translate(-3778.907 -3407.107)" fill="#2e2e2e"/>
    <path id="Caminho_336" data-name="Caminho 336" d="M4335.062,3792l-.354,5.477c-.118.71-.708,2.434-.708,3.043,0,2.333,12.512-2.028,9.679-3.043-.236-.1-2.006-1.42-2.006-2.231-.118-1.217-.118-3.144-.118-3.144Z" transform="translate(-3591.931 -3360.095)" fill="#ffb3c5"/>
    <path id="Caminho_337" data-name="Caminho 337" d="M4340.15,3844.387a31.7,31.7,0,0,1-4.485.913c-1.417.2-3.423-1.318-4.486-.913-1.18.507-1.18,4.564-1.18,4.564s15.7,1.318,20.185-.1C4351.836,3848.343,4346.052,3846.111,4340.15,3844.387Z" transform="translate(-3588.403 -3407.107)" fill="#2e2e2e"/>
    <path id="Caminho_338" data-name="Caminho 338" d="M4375,2433.751l10.978-13.895c.117-.1.117-.406.354-.71.472-1.42,1.652-4.26,2.715-7.1h0c.236-1.014.944-2.739,1.534-4.463a25.169,25.169,0,0,0,1.653-4.564.34.34,0,0,0-.118-.3c-.354-1.014-.944-3.246-1.181-4.158-.118-.71-.236-2.13.591-2.13,1.3,0,.708,1.419,1.3,2.434a20.187,20.187,0,0,0,.944-3.144l.118-2.941c.118-.2-.118-1.825.708-1.825h0c.827,0,.827,1.724,1.181,4.665.118-.3.236-.71.354-1.115a3.9,3.9,0,0,1,.236-1.521c-.118-.811-.118-2.13.826-2.028.591.1.473,1.927.473,1.927v2.434c.118-.608.472-3.347,1.3-3.347.59,0,.59.71.59,1.318,0,.406-.354,3.347-.354,3.651.236-.406.59-3.043.826-3.043,1.3,0,.827,3.651.354,4.666a.972.972,0,0,1-.118.507,7.04,7.04,0,0,1-1.062,2.738c-.708,1.116-1.771,3.042-2.007,3.347-.118.608-.472,2.637-.944,5.375-.118,1.116-.354,2.333-.59,3.651h0c0,.2-.236,1.116-1.181,4.463-1.18,4.564-1.3,4.767-1.3,4.868-.59.811-12.394,15.314-12.866,15.923l-.354.3Z" transform="translate(-3628.091 -2101.138)" fill="#ffb3c5"/>
    <path id="Caminho_339" data-name="Caminho 339" d="M4529.479,2475.226s-.827-2.029-2.479-2.029a2.051,2.051,0,0,1,1.652.2A3.145,3.145,0,0,1,4529.479,2475.226Z" transform="translate(-3762.15 -2174.967)" fill="#ea94ad"/>
    <path id="Caminho_340" data-name="Caminho 340" d="M4342.417,2451.055l-1.417,8.012s5.312,3.955,8.5,3.144c2.6-.71.826-3.854.826-3.854s-1.417-4.26-.944-6.491C4349.735,2449.635,4342.417,2451.055,4342.417,2451.055Z" transform="translate(-3598.105 -2154.751)" fill="#ffb3c5"/>
    <path id="Caminho_341" data-name="Caminho 341" d="M4352.18,2452.941a23.63,23.63,0,0,0,6.138,1.521,7.2,7.2,0,0,1-.118-3.144c.118-1.014-1.3-1.319-2.951-1.319-2.125.2-4.013.507-4.013.507l-.236,1.521A4.638,4.638,0,0,0,4352.18,2452.941Z" transform="translate(-3606.924 -2154.203)" fill="#ea94ad"/>
    <path id="Caminho_342" data-name="Caminho 342" d="M4294.879,2324.785c-.235,0,2.125,9.026,5.784,10.548,3.659,1.623,9.089.812,10.033-1.623,1.18-2.738-2.951-11.866-8.027-13.083C4297.594,2319.511,4294.879,2324.785,4294.879,2324.785Z" transform="translate(-3557.414 -2037.812)" fill="#ffb3c5"/>
    <path id="Caminho_343" data-name="Caminho 343" d="M4266.312,2278.283a10.806,10.806,0,0,0-4.721,4.665c-1.3.609-2.951,1.826-3.777,5.274-.944,4.158,2.479,7.4,6.138,8.317,3.659,1.014,4.25,3.144,4.25,3.144l.472-2.333a8.636,8.636,0,0,0-2.125-3.042c-1.181-1.014.59-2.536.826-3.752.118-.913-.708-2.739-.472-4.361,0,0,2.007-2.739,4.013-3.448C4274.339,2281.63,4270.089,2276.356,4266.312,2278.283Z" transform="translate(-3524.597 -1999.525)" fill="#2e2e2e"/>
    <path id="Caminho_344" data-name="Caminho 344" d="M4322.762,2405.075c.472,1.116.236,2.13-.472,2.333s-1.653-.406-2.125-1.42c-.473-1.116-.236-2.13.472-2.333S4322.29,2404.061,4322.762,2405.075Z" transform="translate(-3579.512 -2112.524)" fill="#ffb3c5"/>
    <path id="Caminho_345" data-name="Caminho 345" d="M4459,2738.621l21.128-3.144s-2.479-5.477-3.3-5.477-15.935,5.984-15.935,5.984l-1.181,2.231Z" transform="translate(-3702.177 -2405.805)" fill="#ffb3c5"/>
    <path id="Caminho_346" data-name="Caminho 346" d="M4339.659,2935.913s-2.125,9.229-1.3,16.126c.944,7,.944,31.745.944,31.745l-3.3,39.656,7.79.2s9.326-39.656,9.09-38.642c-.118,1.014,3.068-27.891,3.068-27.891L4344.971,2935Z" transform="translate(-3593.695 -2590.013)" fill="#eb3d0f"/>
    <path id="Caminho_347" data-name="Caminho 347" d="M4377.377,2913.043s-1.3,8.316.354,11.968c1.77,3.55,14.754,39.25,14.99,42.089.118,2.941,4.486,35.093,4.486,35.093l9.088-.2,1.889-35.8-4.131-44.829-3.9-11.359Z" transform="translate(-3629.76 -2567.549)" fill="#ff4311"/>
    <path id="Caminho_348" data-name="Caminho 348" d="M4341,2511.448a9.127,9.127,0,0,0,4.249,1.217,16.127,16.127,0,0,0,5.076-1.927l-.354-1.217s-5.43-.71-5.548-.608S4341,2511.448,4341,2511.448Z" transform="translate(-3598.105 -2207.132)" fill="#ffb3c5"/>
    <path id="Caminho_349" data-name="Caminho 349" d="M4542,2667.728s8.026,6.8,11.686,5.578c3.541-1.116,5.075-5.071-3.777-10.953C4542.118,2657.18,4542,2667.728,4542,2667.728Z" transform="translate(-3775.379 -2343.736)" fill="#ffb3c5"/>
    <path id="Caminho_350" data-name="Caminho 350" d="M4314.258,2554.987c-1.18-5.882-9.8-24.037-10.5-27.384-.237-1.623-4.958-1.623-9.325-1.42-4.722.2-9.325.71-9.325.71s-4.131.608-6.02,2.231c-1.771,1.521-2.243,5.781.354,13.793,2.125,6.39,4.6,9.94,5.9,14.605.235,1.521.472,3.043.708,4.868.472,6.9,0,16.126,0,16.126s22.545,4.158,31.043-2.231C4317.091,2576.286,4315.557,2560.971,4314.258,2554.987Z" transform="translate(-3542.208 -2222.577)" fill="#eee"/>
    <path id="Caminho_351" data-name="Caminho 351" d="M4448.843,2544.126s-8.853,6.592-9.325,6.592c-.354,0-12.629-8.114-15.463-14.807-1.535-3.753,1.653-7.911,5.43-7.911,2.6,0,3.777.608,8.971,4.564S4448.843,2544.126,4448.843,2544.126Z" transform="translate(-3671.009 -2224.292)" fill="#5e5e5e"/>
    <path id="Caminho_352" data-name="Caminho 352" d="M6809.23,1768.169H6689.9a3.685,3.685,0,0,1-3.9-3.347v-12.475a3.685,3.685,0,0,1,3.9-3.347H6809.23a3.685,3.685,0,0,1,3.9,3.347v12.475A3.685,3.685,0,0,1,6809.23,1768.169Z" transform="translate(-5666.309 -1524.3)" fill="#d8d5d5"/>
    <path id="Caminho_353" data-name="Caminho 353" d="M6718.56,991.693c1.18-4.868-1.535-9.737-6.61-11.562a10.155,10.155,0,0,0-3.542-7.607c-4.367-3.753-13.338-5.375-16.643-.609-4.25,2.13-3.9,4.665-2.715,8.824-4.014,3.651-2.6,9.635,3.423,12.779-.118,4.158-.236,10.345,4.013,12.171a18.475,18.475,0,0,1,2.715,1.217c-.236-.2,3.187,7.809,13.574,4.158C6723.518,1007.311,6725.524,996.662,6718.56,991.693Z" transform="translate(-5666.999 -823.383)" fill="#2e2e2e"/>
    <path id="Caminho_354" data-name="Caminho 354" d="M6569.453,1277.736c.826-.71,2.242-1.319,2.242-1.42-.353-.406-4.013,2.84-3.777,1.927.118-.507,2.715-3.245,3.66-3.245.944-.1,6.728-.913,6.728-.913l13.456-7.708s.709-9.128-2.242-15.213c3.187-.811,3.777-1.014,6.964-.811,1.888,6.288,3.777,16.735,1.416,19.777-.944,1.217-18.414,6.187-18.414,6.187s-3.9,1.217-4.6,1.318a24.136,24.136,0,0,0-2.715,0c-1.653.2-3.66,2.333-3.778,2.028A2.368,2.368,0,0,1,6569.453,1277.736Z" transform="translate(-5562.155 -1076.16)" fill="#ea94ad"/>
    <path id="Caminho_355" data-name="Caminho 355" d="M6720.153,1192.694c1.3-2.028,2.6-3.651,2.6-3.651,1.3-2.028,4.722-3.043,4.722-3.043s1.18.1,2.478.1a.507.507,0,0,0,.236.406c.473.3,3.306-.1,5.076.913,6.02,4.564,4.368,26.268,3.9,33.165h-15.109s-1.063-14.706-4.84-18.459C6716.612,1199.489,6718.383,1195.635,6720.153,1192.694Z" transform="translate(-5694.442 -1018.4)" fill="#ff4311"/>
    <path id="Caminho_356" data-name="Caminho 356" d="M6498.923,1595.35a33.388,33.388,0,0,0-4.014-6.592c-2.478-2.84-24.08-28.4-23.134-34.585.354-2.738,9.8-5.071,10.858-5.172,5.9.71-.354,5.071,4.132,8.722-2.833.811-4.6,1.927-4.014,2.637,2.6,2.739,15.935,25.457,16.525,25.761,2.6,1.318,3.541.71,3.541.71s-.59,12.678-1.771,12.272C6499.75,1598.7,6500.812,1598.189,6498.923,1595.35Z" transform="translate(-5477.344 -1344.584)" fill="#ea94ad"/>
    <path id="Caminho_357" data-name="Caminho 357" d="M6707.075,1915.71l-2.479,12.881c-.59,1.623-1.534,1.623-1.771,1.42-.59-.406-.708-3.854-.826-5.882,1.18-2.941,1.063-8.52.354-9.128C6704.007,1915,6707.075,1915.507,6707.075,1915.71Z" transform="translate(-5680.421 -1673.464)" fill="#eb3d0f"/>
    <path id="Caminho_358" data-name="Caminho 358" d="M6518.184,1556.288c-3.3-4.767-3.187-4.158-8.971-6.288a88.808,88.808,0,0,0-11.213,5.781l12.512,7.708C6510.04,1562.678,6514.407,1558.316,6518.184,1556.288Z" transform="translate(-5500.5 -1345.483)" fill="#ffb3c5"/>
    <path id="Caminho_359" data-name="Caminho 359" d="M6752.4,1106.811s1.062,6.288,1.77,7.81-3.9,4.767-7.79,5.68c-3.777,1.014,1.18-3.347,1.062-4.97-.236-1.623-.944-9.331-.944-9.331Z" transform="translate(-5718.305 -946.514)" fill="#ffb3c5"/>
    <path id="Caminho_360" data-name="Caminho 360" d="M6758.236,1108.231c-.118-1.217-.236-2.231-.236-2.231l5.9.811s.118.71.354,1.724A5.494,5.494,0,0,1,6758.236,1108.231Z" transform="translate(-5729.811 -946.514)" fill="#ea94ad"/>
    <path id="Caminho_361" data-name="Caminho 361" d="M6740.77,1000.531a7.232,7.232,0,0,1,3.777,2.333c1.417,1.927,2.361,7.4-2.243,9.939-4.721,2.637-8.381-1.014-8.381-4.564C6733.805,1004.689,6734.631,999.922,6740.77,1000.531Z" transform="translate(-5708.566 -851.695)" fill="#ffb3c5"/>
    <path id="Caminho_362" data-name="Caminho 362" d="M6722.512,1048.534c.472.811,1.3,1.42,1.771,1.217.59-.2.826-1.116.354-1.927-.354-.913-1.18-1.42-1.771-1.217S6722.158,1047.621,6722.512,1048.534Z" transform="translate(-5698.335 -893.105)" fill="#ffb3c5"/>
    <path id="Caminho_363" data-name="Caminho 363" d="M6823.809,1060.972c-.354.913-.118,1.826.708,2.029.708.2,1.534-.406,1.888-1.318a1.466,1.466,0,0,0-.708-2.029C6824.99,1059.451,6824.164,1060.059,6823.809,1060.972Z" transform="translate(-5787.711 -904.833)" fill="#ffb3c5"/>
    <path id="Caminho_364" data-name="Caminho 364" d="M6571.81,1506.738c2.6-.2,11.1-1.014,11.1-1.014l15.227-1.724s2.715,5.477,2.833,9.027c.118,5.984-5.784,10.244-11.332,9.939-3.305-.1-20.657-.3-26.2-.3-.708-4.97-1.535-10.751-5.429-14.3C6564.137,1507.55,6568.269,1506.941,6571.81,1506.738Z" transform="translate(-5553.417 -1304.148)" fill="#2e2e2e"/>
    <path id="Caminho_365" data-name="Caminho 365" d="M6514.7,1644.932c-.354-.406-3.777-19.98-5.783-28.2a6.946,6.946,0,0,0-4.013-4.665L6494.04,1607c-3.777,2.941,13.81,36.106,15.462,39.555,1.063,2.434,1.771,7.4,1.889,7.708.827,3.347-.354,3.651.827,4.361,1.062.71,6.138-11.664,6.138-11.664S6516.938,1646.859,6514.7,1644.932Z" transform="translate(-5496.54 -1396.702)" fill="#ffb3c5"/>
    <path id="Caminho_366" data-name="Caminho 366" d="M6543.129,1530.913h0c0,.507-.59.913-1.18.913h-18.414a1.612,1.612,0,0,1-1.535-1.014l.354.2c0-.507.472-.913,1.181-.913l18.414-.1C6542.539,1530,6543.129,1530.406,6543.129,1530.913Z" transform="translate(-5521.667 -1327.511)" fill="#ff4311"/>
    <path id="Caminho_367" data-name="Caminho 367" d="M6470.623,1341.783h.354c.944-.1,1.652-.609,1.417-1.217l-7.083-20.893c-.118-.507-1.062-.913-2.007-.811s-1.535.71-1.417,1.217l7.083,20.893C6469.088,1341.479,6469.8,1341.783,6470.623,1341.783Z" transform="translate(-5468.637 -1137.773)" fill="#ff4311"/>
    <path id="Caminho_368" data-name="Caminho 368" d="M6569.4,1336.386c1.062-.406,2.715-.608,2.715-.811-.236-.406-4.84,2.13-4.368,1.319.355-.406,3.777-2.739,4.722-2.536.944.1,6.728.913,6.728.913l14.991-4.666s2.833-8.012,2.361-14.6a23.679,23.679,0,0,1,8.5,1.623c-.473,6.39-2.361,16.836-5.784,19.067-1.417,1.014-19.831,1.014-19.831,1.014a36.19,36.19,0,0,1-4.721,0c-.473-.1-1.889-.609-2.6-.71-1.653-.2-4.25,1.217-4.368,1.014A3.175,3.175,0,0,1,6569.4,1336.386Z" transform="translate(-5561.983 -1135.216)" fill="#ffb3c5"/>
    <path id="Caminho_369" data-name="Caminho 369" d="M6800.755,1200.733c.236-2.028.472-4.057,2.951-4.868a5.3,5.3,0,0,1,4.6.406,4.808,4.808,0,0,1,2.361,4.057,55.392,55.392,0,0,1,.471,10.852c-2.95-1.116-7.082-.507-10.269-.609C6800.166,1207.427,6800.52,1203.371,6800.755,1200.733Z" transform="translate(-5767.254 -1026.947)" fill="#eb3d0f"/>
    <path id="Caminho_370" data-name="Caminho 370" d="M6573.292,1498a15.355,15.355,0,0,0-2.479.609c-1.889,1.014-1.653,1.42,1.063.406.117,0,.117-.1.235-.1l1.3.1c.591,0,.827-.608.354-.913h0C6573.646,1498,6573.527,1498,6573.292,1498Z" transform="translate(-5563.633 -1298.757)" fill="#ffb3c5"/>
    <path id="Caminho_371" data-name="Caminho 371" d="M6621.467,1989.621a5.336,5.336,0,0,1-.59,2.739c-.591,1.217-2.833,1.724-2.361,2.333.59.71,5.076,0,5.076,0l5.194-10.852a.968.968,0,0,0-.236-1.217,10.792,10.792,0,0,0-3.659-1.623S6625.244,1987.9,6621.467,1989.621Z" transform="translate(-5606.733 -1732.77)" fill="#ff4311"/>
    <path id="Caminho_372" data-name="Caminho 372" d="M7542.9,1989.637a2.985,2.985,0,0,1-5.9,0,2.97,2.97,0,0,1,5.9,0Z" transform="translate(-6416.859 -1738.161)" fill="#2e2e2e"/>
    <path id="Caminho_373" data-name="Caminho 373" d="M7619.9,1989.637a2.985,2.985,0,0,1-5.9,0,2.97,2.97,0,0,1,5.9,0Z" transform="translate(-6484.771 -1738.161)" fill="#2e2e2e"/>
    <path id="Caminho_374" data-name="Caminho 374" d="M7694.9,1989.637a2.985,2.985,0,0,1-5.9,0,2.97,2.97,0,0,1,5.9,0Z" transform="translate(-6550.918 -1738.161)" fill="#2e2e2e"/>
    <path id="Caminho_375" data-name="Caminho 375" d="M7569.3,1773.911c0,4.26-4.131,7.809-9.207,7.809s-9.089-3.55-9.089-7.809c0-4.361,4.013-7.911,9.089-7.911S7569.3,1769.55,7569.3,1773.911Z" transform="translate(-6429.207 -1539.576)" fill="#ff4311"/>
    <path id="Caminho_376" data-name="Caminho 376" d="M5621,3484.085h65.511V3478H5621Z" transform="translate(-4727.018 -3077.941)" fill="#262626"/>
    <path id="Caminho_377" data-name="Caminho 377" d="M7495.731,2689.882c4.84-.3,7.555,4.665,4.368,7.708a2.8,2.8,0,0,0-.945,2.028l-.118,2.535a1.422,1.422,0,0,1-1.416,1.319l-1.889.1a1.39,1.39,0,0,1-1.534-1.217c-.473-2.536-.355-3.448-1.653-4.361C7489,2695.257,7491.009,2690.084,7495.731,2689.882Z" transform="translate(-6376.063 -2369.743)" fill="#ff4311"/>
    <path id="Caminho_378" data-name="Caminho 378" d="M7509.472,2724.634c-.236.1-.236.507-.118.71a2.007,2.007,0,0,0,1.18.507c-.118-.406-.118-.812-.354-1.014C7510.062,2724.634,7509.472,2724.634,7509.472,2724.634Zm4.486.406a1.469,1.469,0,0,0-.237,1.014c.59-.1.945-.2,1.063-.507C7515.138,2725.14,7514.548,2724.43,7513.958,2725.039Zm0,6.491c-.237-2.13-.473-4.361-.473-5.172a8.2,8.2,0,0,1-2.715-.2c.354,1.724.591,3.448.827,5.172h-.354a39.013,39.013,0,0,0-.709-5.172,3.614,3.614,0,0,1-1.416-.71,1.126,1.126,0,0,1-.118-.609c.236-.608.944-.608,1.416-.1a3.162,3.162,0,0,1,.354,1.217,8.029,8.029,0,0,0,2.715.1,1.31,1.31,0,0,1,.354-1.116c.945-1.217,2.6,1.014-.118,1.318,0,.71.237,3.043.472,5.274Z" transform="translate(-6392.165 -2400.743)" fill="#fff"/>
    <path id="Caminho_379" data-name="Caminho 379" d="M7521.43,2785v.1l-.118,2.536a1.422,1.422,0,0,1-1.417,1.319l-1.889.1a1.39,1.39,0,0,1-1.534-1.216c-.236-1.116-.354-1.927-.472-2.536Z" transform="translate(-6398.338 -2455.227)" fill="#2e2e2e"/>
    <path id="Caminho_380" data-name="Caminho 380" d="M7550.709,2638.7l.826-2.333c.119-.3,0-.507-.353-.609-.237-.1-.473.1-.591.3l-.826,2.434c-.118.2.118.507.354.507C7550.355,2639.108,7550.709,2639.006,7550.709,2638.7Z" transform="translate(-6428.091 -2321.099)" fill="#ff4311"/>
    <path id="Caminho_381" data-name="Caminho 381" d="M7590.259,2696.384l2.951-.811a.346.346,0,0,0,.354-.507c-.118-.2-.354-.406-.59-.3l-2.951.812c-.354.1-.472.3-.354.507A.43.43,0,0,0,7590.259,2696.384Z" transform="translate(-6463.273 -2374.115)" fill="#ff4311"/>
    <path id="Caminho_382" data-name="Caminho 382" d="M7610.314,2766.586a.433.433,0,0,0-.118-.609c-.944-.406-1.889-.811-2.952-1.217-.235-.1-.472.1-.59.3a.333.333,0,0,0,.236.507,20.911,20.911,0,0,1,2.715,1.217A.508.508,0,0,0,7610.314,2766.586Z" transform="translate(-6478.251 -2437.016)" fill="#ff4311"/>
    <path id="Caminho_383" data-name="Caminho 383" d="M7478.243,2641.72a.427.427,0,0,0,.236-.609,15.411,15.411,0,0,1-1.417-3.144.512.512,0,0,0-.708-.3c-.236,0-.354.3-.354.507a17.648,17.648,0,0,0,1.534,3.347A.534.534,0,0,0,7478.243,2641.72Z" transform="translate(-6363.06 -2322.799)" fill="#ff4311"/>
    <path id="Caminho_384" data-name="Caminho 384" d="M7444.138,2710.71a.522.522,0,0,0-.59-.507l-3.306-.2a.476.476,0,0,0-.472.406c-.118.2.118.507.472.507l3.306.2A.774.774,0,0,0,7444.138,2710.71Z" transform="translate(-6331.08 -2387.833)" fill="#ff4311"/>
    <path id="Caminho_385" data-name="Caminho 385" d="M7444.244,2774.844l.118-.1a15.161,15.161,0,0,0,2.833-1.623c.236-.2.236-.507,0-.608-.118-.2-.472-.2-.708-.1a21.109,21.109,0,0,1-2.6,1.623.426.426,0,0,0-.236.609A.985.985,0,0,0,7444.244,2774.844Z" transform="translate(-6334.491 -2443.854)" fill="#ff4311"/>
    <path id="Caminho_386" data-name="Caminho 386" d="M4883.127,2965.882c4.722-.3,7.437,4.666,4.25,7.708a2.987,2.987,0,0,0-.945,2.029v2.536a1.55,1.55,0,0,1-1.534,1.318l-1.771.1a1.6,1.6,0,0,1-1.652-1.217c-.473-2.535-.354-3.448-1.535-4.361C4876.281,2971.257,4878.288,2966.084,4883.127,2965.882Z" transform="translate(-4071.771 -2617.751)" fill="#ff4311"/>
    <path id="Caminho_387" data-name="Caminho 387" d="M4896.692,3000.633c-.236.1-.236.507-.118.71a2,2,0,0,0,1.18.507,2.667,2.667,0,0,0-.354-1.014C4897.283,3000.633,4896.811,3000.633,4896.692,3000.633Zm4.6.406a1.551,1.551,0,0,0-.354,1.014,1.717,1.717,0,0,0,1.181-.507C4902.358,3001.141,4901.768,3000.43,4901.3,3001.039Zm-.118,6.491c-.236-2.029-.472-4.361-.472-5.173a7.511,7.511,0,0,1-2.6-.2q.354,2.586.708,5.173h-.236c-.236-1.724-.472-3.449-.826-5.173a2.639,2.639,0,0,1-1.417-.71.568.568,0,0,1,0-.608c.118-.609.945-.609,1.3-.1a1.934,1.934,0,0,1,.354,1.217,8.194,8.194,0,0,0,2.715.2,1.936,1.936,0,0,1,.354-1.217c.944-1.217,2.6,1.015-.118,1.319,0,.71.236,3.042.472,5.274Z" transform="translate(-4087.814 -2648.75)" fill="#fff"/>
    <path id="Caminho_388" data-name="Caminho 388" d="M4908.43,3061v2.637a1.551,1.551,0,0,1-1.535,1.319l-1.77.1a1.6,1.6,0,0,1-1.653-1.217,23.414,23.414,0,0,0-.472-2.536Z" transform="translate(-4093.768 -2703.235)" fill="#2e2e2e"/>
    <path id="Caminho_389" data-name="Caminho 389" d="M4938.062,2915.042l.827-2.434a.6.6,0,0,0-.354-.608.748.748,0,0,0-.708.3l-.827,2.434c0,.2.118.507.354.507A.565.565,0,0,0,4938.062,2915.042Z" transform="translate(-4123.755 -2569.346)" fill="#ff4311"/>
    <path id="Caminho_390" data-name="Caminho 390" d="M4977.473,2972.384l2.951-.811a.332.332,0,0,0,.236-.507c0-.2-.354-.406-.59-.3l-2.951.812c-.236.1-.472.3-.354.507A.511.511,0,0,0,4977.473,2972.384Z" transform="translate(-4158.799 -2622.123)" fill="#ff4311"/>
    <path id="Caminho_391" data-name="Caminho 391" d="M4997.328,3042.927a.418.418,0,0,0-.118-.609c-.944-.507-1.889-.913-2.833-1.318a.75.75,0,0,0-.708.3c-.118.2,0,.507.354.609a14.292,14.292,0,0,1,2.6,1.115C4996.856,3043.129,4997.21,3043.129,4997.328,3042.927Z" transform="translate(-4173.696 -2685.263)" fill="#ff4311"/>
    <path id="Caminho_392" data-name="Caminho 392" d="M4865.912,2917.72a.427.427,0,0,0,.236-.609,11.313,11.313,0,0,1-1.535-3.144.43.43,0,0,0-.59-.3.346.346,0,0,0-.354.507,13.094,13.094,0,0,0,1.535,3.448C4865.322,2917.821,4865.676,2917.821,4865.912,2917.72Z" transform="translate(-4059.041 -2570.807)" fill="#ff4311"/>
    <path id="Caminho_393" data-name="Caminho 393" d="M4831.367,2986.71a.491.491,0,0,0-.472-.507l-3.3-.2c-.354,0-.59.2-.59.406a.491.491,0,0,0,.472.507l3.3.2C4831.131,2987.116,4831.367,2986.913,4831.367,2986.71Z" transform="translate(-4026.739 -2635.841)" fill="#ff4311"/>
    <path id="Caminho_394" data-name="Caminho 394" d="M4831.244,3050.844s.118,0,.118-.1a12.136,12.136,0,0,0,2.832-1.623.431.431,0,0,0,.118-.609.639.639,0,0,0-.708-.1,22.58,22.58,0,0,1-2.715,1.623.426.426,0,0,0-.236.608A.983.983,0,0,0,4831.244,3050.844Z" transform="translate(-4029.92 -2691.862)" fill="#ff4311"/>
    <path id="Caminho_395" data-name="Caminho 395" d="M6986.029,3984.71c.354-.3-.117-.71-.708-.71H6884.4c-7.909,0-14.4,3.651-14.4,8.215h0c0,4.564,6.492,8.316,14.4,8.316h100.921c.591,0,1.063-.405.708-.811h0C6982.134,3994.953,6982.134,3989.477,6986.029,3984.71Z" transform="translate(-5828.59 -3532.622)" fill="#262626"/>
    <path id="Caminho_396" data-name="Caminho 396" d="M7272.724,4001h-67.635c-5.075,0-9.088,2.84-9.088,6.39v.406c0,3.55,4.013,6.389,9.088,6.389h67.872A10.93,10.93,0,0,1,7272.724,4001Z" transform="translate(-6116.11 -3547.898)" fill="#fff"/>
    <path id="Caminho_397" data-name="Caminho 397" d="M7008,3836.822h52.88a8.208,8.208,0,0,0,8.5-7.911h0a8.208,8.208,0,0,0-8.5-7.911H7008a11.251,11.251,0,0,1,.354,15.315Z" transform="translate(-5950.301 -3386.153)" fill="#fff"/>
    <path id="Caminho_398" data-name="Caminho 398" d="M7058.087,3821.722h0a8.208,8.208,0,0,0-8.5-7.911h-53.117c-.236,0-.472-.1-.472-.406h0a.477.477,0,0,1,.472-.406h84.16c5.312,0,9.561,3.956,9.561,8.722h0c0,4.767-4.249,8.722-9.561,8.722h-84.16a.476.476,0,0,1-.472-.406h0c0-.3.236-.406.472-.406h53.117A8.208,8.208,0,0,0,7058.087,3821.722Z" transform="translate(-5939.717 -3378.965)" fill="#ff4311"/>
    <path id="Caminho_399" data-name="Caminho 399" d="M7126,3665.72h52.881c4.721,0,8.5-3.448,8.5-7.809h0a8.208,8.208,0,0,0-8.5-7.911H7126a11.372,11.372,0,0,1,.354,15.315Z" transform="translate(-6054.373 -3232.496)" fill="#fff"/>
    <path id="Caminho_400" data-name="Caminho 400" d="M7176.087,3650.722h0a8.208,8.208,0,0,0-8.5-7.911h-53.117a.476.476,0,0,1-.472-.406h0a.476.476,0,0,1,.472-.406h84.16c5.312,0,9.561,3.854,9.561,8.722h0c0,4.767-4.249,8.621-9.561,8.621h-84.16c-.236,0-.472-.1-.472-.406h0a.476.476,0,0,1,.472-.406h53.117C7172.31,3658.532,7176.087,3655.083,7176.087,3650.722Z" transform="translate(-6043.79 -3225.308)" fill="#2e2e2e"/>
    <path id="Caminho_401" data-name="Caminho 401" d="M7495.791,4067h-5.666c-1.181,0-2.125.3-2.125.71h7.791Z" transform="translate(-6373.644 -3607.204)" fill="#e25a74"/>
    <path id="Caminho_402" data-name="Caminho 402" d="M7516.5,4068.724c0-.913-1.416-1.724-3.305-1.724H7506c1.3,0,2.479.608,2.479,1.318v19.473l4.013-2.536,4.013,2.536Z" transform="translate(-6389.519 -3607.204)" fill="#ff4311"/>
    <path id="Caminho_403" data-name="Caminho 403" d="M7106.881,3597.419l4.839-1.014a40.279,40.279,0,0,0,7.555-.406,8.4,8.4,0,0,1,.472,2.535c.118.3-.354,1.826-.708,1.826-1.3.2-3.424,0-7.319,0,0,0-6.138.71-9.442-.3C7099.09,3599.144,7106.881,3597.419,7106.881,3597.419Z" transform="translate(-6032.775 -3183.973)" fill="#262626"/>
    <path id="Caminho_404" data-name="Caminho 404" d="M7440.77,2898.792c.236,2.434,2.6,3.347,4.721,4.868,1.534,1.014,1.3,3.753.118,5.477-2.833,4.361-.354,4.868,1.889,8.012,5.547,7.708-11.568,9.432-13.574,9.939-2.125.609-3.423,1.319-4.722,1.217-3.542-.406-6.846-4.767-8.735-8.925-1.889-4.057,2.6-4.26,2.833-6.593s-4.957-2.84-3.423-7.3c1.652-4.868,4.013-8.925,7.2-10.345,5.194-2.434,11.568.1,12.984,2.028A5.945,5.945,0,0,1,7440.77,2898.792Z" transform="translate(-6313.311 -2553.298)" fill="#2e2e2e"/>
    <path id="Caminho_405" data-name="Caminho 405" d="M7360.341,3390.708a50.988,50.988,0,0,0,2.951,4.361l-34.82.3-.472-6.085c9.443-.1,18.886-3.753,27.738-6.288C7355.974,3383.405,7360.106,3390.3,7360.341,3390.708Z" transform="translate(-6232.529 -2992.577)" fill="#fae0b2"/>
    <path id="Caminho_406" data-name="Caminho 406" d="M7390.85,3112.669s1.889-11.359,4.84-12.475c3.069-1.217,19.358.406,21.718,1.724,2.479,1.318-1.534,14.6-2.242,18.256a1.313,1.313,0,0,1-.118.71,28.321,28.321,0,0,0,1.771,15.923c-8.853,2.333-11.214,3.651-20.774,3.448L7392.5,3122.3S7389.669,3113.582,7390.85,3112.669Z" transform="translate(-6287.708 -2738.068)" fill="#fff"/>
    <path id="Caminho_407" data-name="Caminho 407" d="M7497.7,3021.913s.708,6.288,1.417,7.81c.59,1.521-1.771,4.666-5.548,5.477-3.9.913-1.062-3.347-1.181-4.97-.118-1.521-.472-9.229-.472-9.229Z" transform="translate(-6376.733 -2667.291)" fill="#ffb3c5"/>
    <path id="Caminho_408" data-name="Caminho 408" d="M7500.9,3022.623a7.334,7.334,0,0,1-1.771,1.318,5.909,5.909,0,0,1-4.013.608c0-1.927-.118-3.55-.118-3.55l5.784.913A2.811,2.811,0,0,0,7500.9,3022.623Z" transform="translate(-6379.817 -2667.291)" fill="#ea94ad"/>
    <path id="Caminho_409" data-name="Caminho 409" d="M7478.178,2917.176a6.511,6.511,0,0,1,3.659,2.434c1.3,1.927,2.125,7.4-2.714,9.838a5.354,5.354,0,0,1-8.145-4.868C7471.1,2921.03,7472.158,2916.364,7478.178,2917.176Z" transform="translate(-6358.628 -2573.913)" fill="#ffb3c5"/>
    <path id="Caminho_410" data-name="Caminho 410" d="M7459,2961.537c0,.912.59,1.724,1.18,1.623.708,0,1.063-.812,1.063-1.724s-.59-1.623-1.18-1.521C7459.354,2959.914,7459,2960.624,7459,2961.537Z" transform="translate(-6348.066 -2612.392)" fill="#ffb3c5"/>
    <path id="Caminho_411" data-name="Caminho 411" d="M7560.785,2978.823c-.354.913-.118,1.825.59,2.029a1.818,1.818,0,0,0,2.007-1.217c.354-.913.118-1.826-.59-2.029A1.817,1.817,0,0,0,7560.785,2978.823Z" transform="translate(-6437.693 -2628.259)" fill="#ffb3c5"/>
    <path id="Caminho_412" data-name="Caminho 412" d="M7582.285,3121a10.44,10.44,0,0,0-4.486,4.767c-1.652,3.448,4.132,21.3,5.43,22.414,1.18,1.116,4.6,1.319,5.194-1.521C7589.013,3143.921,7587.006,3121.913,7582.285,3121Z" transform="translate(-6452.583 -2757.149)" fill="#d8d5d5"/>
    <path id="Caminho_413" data-name="Caminho 413" d="M7329.83,3095.65l4.722,24.747-18.532,2.536L7310,3099.91S7325.345,3094.534,7329.83,3095.65Z" transform="translate(-6216.654 -2734.233)" fill="#fff"/>
    <path id="Caminho_414" data-name="Caminho 414" d="M7173,3099.933a11.873,11.873,0,0,1,5.666-.406c3.423.507,8.971,1.724,11.213,3.854,3.3,3.042,6.492,23.53,6.492,23.53l-14.518-2.738-8.853-24.24Z" transform="translate(-6095.825 -2737.705)" fill="#fff"/>
    <path id="Caminho_415" data-name="Caminho 415" d="M7316.3,3296.468c-2.361-5.781-29.981-26.877-37.3-25.254l3.9,12.881s8.145,21.2,16.29,23.631a25.712,25.712,0,0,0,15.463-.3S7318.778,3302.35,7316.3,3296.468Z" transform="translate(-6189.313 -2892.048)" fill="#262626"/>
    <path id="Caminho_416" data-name="Caminho 416" d="M7510.718,3185.958c-.354.609,1.889,1.623,2.479,2.029.708.406,3.305,0,3.305,0S7511.19,3185.248,7510.718,3185.958Z" transform="translate(-6393.646 -2815.413)" fill="#ffb3c5"/>
    <path id="Caminho_417" data-name="Caminho 417" d="M7197.573,3436.535s-7.083,12.576-7.083,13.895c0,1.825-10.151,1.319-7.908.507a19.674,19.674,0,0,1,2.243-.913c.59-.507,6.374-16.024,6.374-16.024Z" transform="translate(-6103.991 -3038.404)" fill="#ea94ad"/>
    <path id="Caminho_418" data-name="Caminho 418" d="M7221.637,3307.392a5.943,5.943,0,0,0-6.729,1.318c-2.715,2.942-7.908,25.761-7.908,25.761l6.374.507S7229.427,3314.8,7221.637,3307.392Z" transform="translate(-6125.812 -2924.169)" fill="#262626"/>
    <path id="Caminho_419" data-name="Caminho 419" d="M7152.812,3115.511l8.263,20.791a2.642,2.642,0,0,0,2.125,1.521c7.79,1.014,11.92,1.42,11.92,1.42s1.417.1,3.069.1l17.823-1.622a2.437,2.437,0,0,0,2.361-2.738l-4.367-20.488a2.665,2.665,0,0,0-3.069-1.825l-17.116,2.434c-1.534,0-2.951-.1-4.486-.1l-13.456-2.536C7153.874,3112.063,7152.1,3113.787,7152.812,3115.511Z" transform="translate(-6077.88 -2749.429)" fill="#ff4311"/>
    <path id="Caminho_420" data-name="Caminho 420" d="M7448.653,3200.086s4.721.71,6.374.71a15.6,15.6,0,0,1,3.777.406s5.312,10.75,6.02,11.968c2.36,3.55,8.617,3.145,8.617.2-.118-2.434-10.978-17.343-13.811-17.242-2.951.1-11.922-1.521-12.158-.608-.118.608,8.262.811,6.964,1.318-.827.2-7.437-.406-7.437.3,0,.608,6.02.71,6.61,1.217.708.507-6.256-.609-6.256.507,0,.507,6.138.1,6.847,1.014C7454.437,3200.187,7448.063,3198.97,7448.653,3200.086Z" transform="translate(-6337.483 -2823.862)" fill="#ffb3c5"/>
    <path id="Caminho_421" data-name="Caminho 421" d="M7180.417,3224.766a.841.841,0,0,0-.944.406.987.987,0,0,0,.236,1.116c.59.507,4.722,1.014,4.722.507C7184.547,3226.389,7181.715,3225.273,7180.417,3224.766Z" transform="translate(-6101.471 -2850.367)" fill="#ffb3c5"/>
    <path id="Caminho_422" data-name="Caminho 422" d="M7179.432,3238.765s-.473,1.319,0,1.42c.354,0,4.839.405,5.075-.1C7184.625,3239.577,7180.022,3238.563,7179.432,3238.765Z" transform="translate(-6101.313 -2862.947)" fill="#ffb3c5"/>
    <path id="Caminho_423" data-name="Caminho 423" d="M7178.859,3251.363a1.068,1.068,0,0,0,.236.913c.472.406,4.6.1,4.839-.406C7184.052,3251.261,7179.095,3250.958,7178.859,3251.363Z" transform="translate(-6100.976 -2874.125)" fill="#ffb3c5"/>
    <path id="Caminho_424" data-name="Caminho 424" d="M7185,3261.631a1.116,1.116,0,0,0,.236.709c.118.2,3.3-.1,3.541-.709C7189.131,3261.124,7185.354,3261.124,7185,3261.631Z" transform="translate(-6106.409 -2883.175)" fill="#ffb3c5"/>
    <path id="Caminho_425" data-name="Caminho 425" d="M7184.309,3557.231a60.723,60.723,0,0,1-2.951,7.607c-.944,2.029-1.3,4.057-1.889,5.071-1.652,2.535-4.249,2.637-6.374,1.115s.708-7.911.708-7.911l6.61-8.114Z" transform="translate(-6095.213 -3147.132)" fill="#ffb3c5"/>
    <path id="Caminho_426" data-name="Caminho 426" d="M7174.245,3641.795c.59-.913.826-2.637,1.534-4.361a6.772,6.772,0,0,1-3.659.71c-3.423-.812-3.542-3.144-3.542-3.144s-3.659,6.491-1.535,8.012A5.122,5.122,0,0,0,7174.245,3641.795Z" transform="translate(-6089.987 -3219.018)" fill="#262626"/>
    <path id="Caminho_427" data-name="Caminho 427" d="M7298.485,3138.1l5.548,24.443-3.3-.2-.944-.1L7294,3138Z" transform="translate(-6202.543 -2772.425)" fill="#eb3d0f"/>
    <path id="Caminho_428" data-name="Caminho 428" d="M7248.814,3317.8c1.889,3.043,5.548,2.536,8.971,2.536,3.9,0,7.79-1.318,8.971-4.97,1.18-3.956-.354-8.824-3.069-11.866-13.929-15.822-14.047-17.343-19.595-19.473-5.9-2.231-28.092,30.325-28.092,30.325l6.138,2.637a159.929,159.929,0,0,0,14.873-12.272,39.363,39.363,0,0,0,2.715-4.158S7247.516,3315.875,7248.814,3317.8Z" transform="translate(-6133.75 -2903.544)" fill="#2e2e2e"/>
    <path id="Caminho_429" data-name="Caminho 429" d="M4290.319,3873.217a.916.916,0,0,0-.944-1.217H4174.289c-8.97,0-16.289,6.085-16.289,13.489h0c0,7.505,7.318,13.489,16.289,13.489h115.086c.708,0,1.3-.608.944-1.115h0A23.717,23.717,0,0,1,4290.319,3873.217Z" transform="translate(-3436.706 -3431.981)" fill="#ff4311"/>
    <path id="Caminho_430" data-name="Caminho 430" d="M4704.016,3897h-67.281c-4.84,0-8.735,5.071-8.735,11.258h0c0,6.288,3.9,11.36,8.735,11.36h67.635A23.994,23.994,0,0,1,4704.016,3897Z" transform="translate(-3851.228 -3454.445)" fill="#f2f2f2"/>
    <path id="Caminho_431" data-name="Caminho 431" d="M4873.269,3981h-7.437c-1.534,0-2.833.406-2.833.812h10.269Z" transform="translate(-4058.49 -3529.926)" fill="#eb3d0f"/>
    <path id="Caminho_432" data-name="Caminho 432" d="M4899.928,3982.825c0-1.014-2.007-1.826-4.368-1.826H4886c1.888,0,3.3.71,3.3,1.42v19.473l5.194-2.536,5.43,2.536Z" transform="translate(-4078.775 -3529.926)" fill="#ff4311"/>
    <path id="Caminho_433" data-name="Caminho 433" d="M5324.187,3376.811l3.659-.812-2.479,28.2-4.367.1,2.125-26.471A1.275,1.275,0,0,1,5324.187,3376.811Z" transform="translate(-4462.429 -2986.286)" fill="#d8d5d5"/>
    <path id="Caminho_434" data-name="Caminho 434" d="M5349.416,3404.892h-.236a1.392,1.392,0,0,1-1.18-1.42l2.479-26.471a1.208,1.208,0,0,1,1.416-1.116,1.366,1.366,0,0,1,1.18,1.319l-2.479,26.572C5350.6,3404.385,5350.125,3404.79,5349.416,3404.892Z" transform="translate(-4486.242 -2986.172)" fill="#ff4311"/>
    <path id="Caminho_435" data-name="Caminho 435" d="M5078,3651.738h0a1.988,1.988,0,0,0,2.125,1.826l30.69-2.333a2.019,2.019,0,0,0,1.77-2.13l-.118-.1Z" transform="translate(-4248.112 -3231.598)" fill="#ff4311"/>
    <path id="Caminho_436" data-name="Caminho 436" d="M5145.99,3948.811c-2.007,1.014-8.145-.71-8.145-.812,0,1.42-6.846,15.518-6.846,15.518v4.361s14.046.507,13.811-.507c-.236-1.115-.944-.406-3.777-2.434-.237-.1-4.131-.913-3.069-2.941C5140.088,3958.041,5144.574,3951.347,5145.99,3948.811Z" transform="translate(-4294.856 -3500.273)" fill="#ffb3c5"/>
    <path id="Caminho_437" data-name="Caminho 437" d="M5124.11,4105.462h15.346c.59,0,.708-.406.472-.608-.354-.507-3.306-1.623-5.312-2.435-3.423.406-9.443-.811-10.033-1.419C5123.166,4102.623,5123.875,4105.462,5124.11,4105.462Z" transform="translate(-4288.439 -3637.755)" fill="#ff4311"/>
    <path id="Caminho_438" data-name="Caminho 438" d="M5098.632,3727.633c-.236-.508,13.1-5.375,13.811-4.767,1.062.913-7.319,19.473-7.319,19.473l9.562,2.434s9.915-21.3,9.443-25.254c-.354-3.854-5.312-8.317-16.053-5.477S5098.632,3727.633,5098.632,3727.633Z" transform="translate(-4266.265 -3289.236)" fill="#262626"/>
    <path id="Caminho_439" data-name="Caminho 439" d="M5263.443,3975.507c-2.361-.3-5.194-.405-7.555-.507.237,1.826,1.535,11.055,1.3,11.563a6.823,6.823,0,0,1-3.187,3.347s10.387,8.114,11.1,7.2c.59-1.014-.473-.812-1.181-3.955a30.947,30.947,0,0,1-1.652-6.8C5262.026,3981.9,5263.325,3977.941,5263.443,3975.507Z" transform="translate(-4403.337 -3524.534)" fill="#ffb3c5"/>
    <path id="Caminho_440" data-name="Caminho 440" d="M4892.14,3678.473c-1.417-.709-5.193-.709-9.325-.507a110.112,110.112,0,0,0-23.726,4.057l-5.075,1.42v-4.463s-16.289-2.434-16.879,1.116c-.827,5.172.235,15.822,5.665,18.154,16.879,7.4,40.6-11.663,40.6-9.229.118,3.347,3.423,15.923,4.25,21.4a67.8,67.8,0,0,0,8.145-.3C4896.154,3699.366,4896.271,3680.3,4892.14,3678.473Z" transform="translate(-4035.458 -3257.522)" fill="#2e2e2e"/>
    <path id="Caminho_441" data-name="Caminho 441" d="M5251.882,4092.549l11.686,8.012c.354.3.826.1.826-.2,0-.608-1.416-3.042-2.36-4.767-2.951-1.623-6.729-5.781-6.729-6.592C5254.125,4089.913,5251.646,4092.347,5251.882,4092.549Z" transform="translate(-4401.456 -3626.972)" fill="#ff4311"/>
    <path id="Caminho_442" data-name="Caminho 442" d="M4735.292,3163.219c-.472-3.043-.826-6.187-3.777-8.418a9.315,9.315,0,0,0-8.5-1.217c-8.617,2.84-4.131,9.331-15.109,15.924-3.423,2.028-7.082,3.448-9.679,6.187-3.542,3.854-2.243,8.519,1.062,11.663,15.581,14.808,32.932-5.274,34.231-10.041C4734.466,3173.767,4735.528,3165.146,4735.292,3163.219Z" transform="translate(-3911.306 -2785.98)" fill="#ff4311"/>
    <path id="Caminho_443" data-name="Caminho 443" d="M4853.888,3364.694c-1.3-2.029-2.6-3.651-2.6-3.651-1.3-2.028-4.721-3.043-4.721-3.043s-1.181,0-2.479.1c-.118.2-.118.3-.236.3-.472.406-3.3,0-5.194,1.014-6.02,4.462-4.367,26.369-3.895,33.266l18.649.1s-2.361-14.808,1.417-18.662C4857.429,3371.489,4855.777,3367.635,4853.888,3364.694Z" transform="translate(-4033.089 -2970.112)" fill="#eee"/>
    <path id="Caminho_444" data-name="Caminho 444" d="M4916.227,3278.709s-1.062,6.289-1.771,7.81,3.9,4.767,7.791,5.781-1.181-3.347-1.062-4.97c.236-1.622.944-9.331.944-9.331Z" transform="translate(-4103.808 -2898.225)" fill="#ffb3c5"/>
    <path id="Caminho_445" data-name="Caminho 445" d="M4933.02,3280.13c.118-1.218.236-2.13.236-2.13l-5.9.71s-.118.71-.354,1.826A5.3,5.3,0,0,0,4933.02,3280.13Z" transform="translate(-4114.935 -2898.225)" fill="#ea94ad"/>
    <path id="Caminho_446" data-name="Caminho 446" d="M4908.314,3171.531a7.12,7.12,0,0,0-3.659,2.333c-1.535,1.927-2.479,7.4,2.242,10.041a5.551,5.551,0,0,0,8.5-4.666C4915.4,3175.689,4914.57,3170.922,4908.314,3171.531Z" transform="translate(-4094.125 -2802.508)" fill="#ffb3c5"/>
    <path id="Caminho_447" data-name="Caminho 447" d="M4996.637,3219.533c-.354.913-1.181,1.42-1.771,1.218s-.708-1.116-.354-1.928c.472-.913,1.181-1.419,1.771-1.217S4997.109,3218.722,4996.637,3219.533Z" transform="translate(-4174.303 -2843.917)" fill="#ffb3c5"/>
    <path id="Caminho_448" data-name="Caminho 448" d="M4890.144,3170.987s-2.95,5.68-5.547,6.187-2.6,3.449-2.6,3.449.118-6.694,2.6-8.215A11.018,11.018,0,0,1,4890.144,3170.987Z" transform="translate(-4075.247 -2802.065)" fill="#ff4311"/>
    <path id="Caminho_449" data-name="Caminho 449" d="M4892.406,3231.972a1.466,1.466,0,0,1-.708,2.029,1.708,1.708,0,0,1-1.889-1.319c-.354-.912-.118-1.825.708-2.028C4891.226,3230.45,4892.052,3231.059,4892.406,3231.972Z" transform="translate(-4081.994 -2855.646)" fill="#ffb3c5"/>
    <path id="Caminho_450" data-name="Caminho 450" d="M4909.244,3494.647a22.442,22.442,0,0,0-2.715-.507c.118-.507,5.075,1.116,4.367.3-.354-.406-4.013-1.825-4.957-1.623-.827.3-6.61,1.623-6.61,1.623l-15.581-3.144s-4.014-7.708-4.368-14.3a23.163,23.163,0,0,0-8.38,2.434c1.417,6.289,4.722,16.532,8.38,18.459,1.535.812,20.066-.913,20.066-.913s4.013-.3,4.722-.507a13.129,13.129,0,0,1,2.479-.913c1.652-.406,4.485.507,4.485.3A2.8,2.8,0,0,0,4909.244,3494.647Z" transform="translate(-4065.545 -3077.043)" fill="#ffb3c5"/>
    <path id="Caminho_451" data-name="Caminho 451" d="M4868.033,3364.271c-.236-2.028-1.063-3.956-3.659-4.665a5.378,5.378,0,0,0-4.485.913,4.8,4.8,0,0,0-1.889,4.26,47.781,47.781,0,0,0,1.062,10.852,32.153,32.153,0,0,1,9.325-2.535S4868.151,3367.01,4868.033,3364.271Z" transform="translate(-4054.08 -2971.414)" fill="#5e5e5e"/>
    <path id="Caminho_468" data-name="Caminho 468" d="M6350.086,3601.5l-43.319-10.446a3.524,3.524,0,0,1-2.833-4.361l17.352-53.348a4.395,4.395,0,0,1,5.076-2.434l43.32,10.446a3.524,3.524,0,0,1,2.832,4.361l-17.351,53.246A4.219,4.219,0,0,1,6350.086,3601.5Z" transform="translate(-5329.215 -3125.378)" fill="#d8d5d5"/>
    <path id="Caminho_469" data-name="Caminho 469" d="M6526.609,3622.7l-38.952-9.331a1.092,1.092,0,0,1-.826-1.217h0a1.194,1.194,0,0,1,1.534-.71l38.834,9.331a.9.9,0,0,1,.826,1.217h0A1.245,1.245,0,0,1,6526.609,3622.7Z" transform="translate(-5490.629 -3197.796)" fill="#fff"/>
    <path id="Caminho_470" data-name="Caminho 470" d="M6509.143,3660.081l-31.988-7.708c-.59-.2-.944-.71-.708-1.217h0a1.069,1.069,0,0,1,1.417-.71l31.87,7.607c.708.2,1.063.71.826,1.318h0A1.245,1.245,0,0,1,6509.143,3660.081Z" transform="translate(-5481.425 -3232.841)" fill="#fff"/>
    <path id="Caminho_471" data-name="Caminho 471" d="M6505.107,3700.7l-38.952-9.331a.891.891,0,0,1-.708-1.217h0a1.068,1.068,0,0,1,1.417-.709l38.834,9.331a.9.9,0,0,1,.826,1.217h0A1.068,1.068,0,0,1,6505.107,3700.7Z" transform="translate(-5471.724 -3267.885)" fill="#fff"/>
    <path id="Caminho_472" data-name="Caminho 472" d="M6485.263,3737.655l-29.982-7.2a.9.9,0,0,1-.826-1.217h0a1.145,1.145,0,0,1,1.417-.71l29.981,7.2c.708.2,1.062.71.827,1.217h0A1.068,1.068,0,0,1,6485.263,3737.655Z" transform="translate(-5462.03 -3303.012)" fill="#fff"/>
    <path id="Caminho_473" data-name="Caminho 473" d="M6518.834,3510.2l-.709-.2a.75.75,0,0,0-.708.3l-1.652,5.071c-.118.3.118.507.354.608l.826.2a.893.893,0,0,0,.708-.3l1.535-5.071Q6519.366,3510.354,6518.834,3510.2Z" transform="translate(-5516.141 -3106.696)" fill="#ff4311"/>
    <path id="Caminho_474" data-name="Caminho 474" d="M6547.187,3518.2l-.826-.2a.893.893,0,0,0-.708.3l-1.653,5.071a.564.564,0,0,0,.472.608l.708.2a.747.747,0,0,0,.708-.3l1.653-5.071C6547.659,3518.507,6547.423,3518.3,6547.187,3518.2Z" transform="translate(-5541.07 -3113.884)" fill="#ff4311"/>
    <path id="Caminho_475" data-name="Caminho 475" d="M6575.834,3526.2l-.827-.2c-.236,0-.59.1-.59.3l-1.653,5.071c-.118.2.119.507.355.609l.826.1c.236.1.59,0,.59-.2l1.653-5.071C6576.307,3526.507,6576.071,3526.3,6575.834,3526.2Z" transform="translate(-5566.412 -3121.073)" fill="#ff4311"/>
    <path id="Caminho_476" data-name="Caminho 476" d="M6604.069,3534.2l-.708-.2a.753.753,0,0,0-.709.3l-1.652,5.071a.694.694,0,0,0,.354.608l.826.1a.512.512,0,0,0,.709-.3l1.652-4.97A.564.564,0,0,0,6604.069,3534.2Z" transform="translate(-5591.342 -3128.262)" fill="#ff4311"/>
    <path id="Caminho_477" data-name="Caminho 477" d="M6632.738,3542.2l-.826-.2c-.236,0-.59.1-.59.3l-1.652,5.071a.346.346,0,0,0,.354.507l.708.2a.511.511,0,0,0,.708-.3l1.653-5.071C6633.21,3542.507,6632.975,3542.3,6632.738,3542.2Z" transform="translate(-5616.589 -3135.45)" fill="#ff4311"/>
    <path id="Caminho_478" data-name="Caminho 478" d="M6660.834,3549.964l-.826-.2c-.236-.1-.472.1-.59.3l-1.652,5.071c-.118.2.118.507.354.507l.826.2c.236.1.59,0,.59-.3l1.652-5.071C6661.307,3550.268,6661.188,3550.065,6660.834,3549.964Z" transform="translate(-5641.38 -3142.4)" fill="#ff4311"/>
    <path id="Caminho_479" data-name="Caminho 479" d="M6689.187,3557.964l-.826-.2a.6.6,0,0,0-.709.3l-1.652,5.071a.474.474,0,0,0,.472.507l.708.2a.512.512,0,0,0,.708-.3l1.653-5.071A.552.552,0,0,0,6689.187,3557.964Z" transform="translate(-5666.309 -3149.589)" fill="#ff4311"/>
    <path id="Caminho_480" data-name="Caminho 480" d="M6717.738,3565.964l-.827-.2c-.235-.1-.59.1-.59.3l-1.652,5.071a.346.346,0,0,0,.354.507l.826.2c.236.1.591-.1.591-.3l1.652-5.071C6718.21,3566.268,6717.975,3566.065,6717.738,3565.964Z" transform="translate(-5691.556 -3156.777)" fill="#ff4311"/>
    <path id="Caminho_481" data-name="Caminho 481" d="M6745.834,3573.964l-.709-.2a.6.6,0,0,0-.708.3l-1.652,5.071c-.119.2.118.507.354.507l.826.2a.668.668,0,0,0,.708-.3l1.653-5.071A.474.474,0,0,0,6745.834,3573.964Z" transform="translate(-5716.346 -3163.966)" fill="#ff4311"/>
    <path id="Caminho_482" data-name="Caminho 482" d="M6774.187,3581.964l-.826-.2a.669.669,0,0,0-.708.3l-1.653,5.071c0,.2.118.406.472.507l.709.2a.6.6,0,0,0,.708-.3l1.652-5.071C6774.659,3582.268,6774.423,3581.964,6774.187,3581.964Z" transform="translate(-5741.276 -3171.154)" fill="#ff4311"/>
    <path id="Caminho_483" data-name="Caminho 483" d="M6802.834,3589.866l-.827-.2c-.236-.1-.59,0-.59.3l-1.653,5.071c-.117.2.118.406.354.507l.827.2c.236.1.59-.1.59-.3l1.653-5.071C6803.306,3590.17,6803.07,3589.866,6802.834,3589.866Z" transform="translate(-5766.618 -3178.245)" fill="#ff4311"/>
    <path id="Caminho_484" data-name="Caminho 484" d="M6831.069,3597.866l-.708-.2a.512.512,0,0,0-.708.3l-1.652,5.071a.552.552,0,0,0,.354.507l.827.2a.6.6,0,0,0,.708-.3l1.652-5.071A.474.474,0,0,0,6831.069,3597.866Z" transform="translate(-5791.547 -3185.433)" fill="#ff4311"/>
    <path id="Caminho_485" data-name="Caminho 485" d="M5931.043,3998.39l41.431-.812h.236l7.437-2.129a.777.777,0,0,0,0-1.522l-7.673-1.927h-.236l-41.549.71c-.473,0-.945.406-.827.811l.236,4.057A.954.954,0,0,0,5931.043,3998.39Z" transform="translate(-4999.407 -3539.811)" fill="#ff4311"/>
    <path id="Caminho_486" data-name="Caminho 486" d="M6288.52,3991.1l.118-.1,7.318,1.927.118,1.724-7.083,2.028A21.894,21.894,0,0,1,6288.52,3991.1Z" transform="translate(-5315.689 -3538.912)" fill="#f2f2f2"/>
    <path id="Caminho_487" data-name="Caminho 487" d="M6382.281,3983.344a3.2,3.2,0,0,1-2.125-.71c-2.125-1.826-1.3-6.288-.944-9.635.118-1.623.236-3.347-.59-4.767-.944-1.521-4.839-1.42-7.79-.2-1.889.71-3.659,2.13-2.951,3.651a.256.256,0,0,1-.236.406c-.236.1-.354,0-.472-.2-.826-1.623.472-3.347,3.423-4.462,3.187-1.319,7.437-1.42,8.734.507.945,1.521.708,3.448.591,5.071-.236,3.245-1.062,7.607.708,9.128a2.289,2.289,0,0,0,1.889.507c3.659-.2,3.069-6.593,3.659-8.925.826-3.347,2.36-7.505,6.256-7.1a7.656,7.656,0,0,1,6.256,5.274,13.647,13.647,0,0,1,.826,4.361.369.369,0,0,1-.354.406h0c-.236-.1-.354-.2-.354-.406a13.671,13.671,0,0,0-.826-4.259,6.674,6.674,0,0,0-5.666-4.666c-3.423-.406-4.6,3.651-5.429,6.491C6386.294,3976.346,6387,3983.344,6382.281,3983.344Z" transform="translate(-5384.899 -3516.854)" fill="#ff4311"/>
  </g>
</svg>
