<svg id="img-slider-3" xmlns="http://www.w3.org/2000/svg" width="544" height="215.584" viewBox="0 0 544 215.584">
  <path id="Caminho_491" data-name="Caminho 491" d="M568.519,396.882S624.958,337.16,578,272.66c-41.262-57.333-90.113-53.511-125.684-30.1-15.177,10.033-70.194,54.944-107.187-3.344-50.748-79.311-215.8-85.044-183.547,37.266,15.177,59.244-62.605,61.155-30.354,120.4Z" transform="translate(-98.506 -181.775)" fill="#eee"/>
  <path id="Caminho_492" data-name="Caminho 492" d="M226.365,464s-16.126,6.689-18.971,6.689S187,465.433,187,465.433l.474,2.867s13.28,8.122,18.023,8.6,20.868-4.3,22.765-5.256C229.685,470.689,230.634,464.956,226.365,464Z" transform="translate(-131.983 -329.16)" fill="#fc87a3"/>
  <path id="Caminho_493" data-name="Caminho 493" d="M265.4,409.739s5.691-.956,8.537.956c5.217,4.3,5.691,17.678,7.588,19.589s6.64.956,7.114,11.467c.474,10.033-1.9,10.989.949,15.766,2.846,4.3-1.423,9.078-1.423,9.078s1.9-2.389.949-4.3c0,0-.474,3.822-2.846,4.778-2.846.956-3.32,1.911-3.32,3.344,0,0-21.817-11.467-21.817-19.589-.474-7.644-4.743-15.767-2.371-19.111a6.643,6.643,0,0,0-.949,3.344s-1.423-2.867.949-4.778c1.9-2.389-2.846-7.167-1.9-12.422C257.334,414.039,259.705,410.217,265.4,409.739Z" transform="translate(-168.643 -300.699)" fill="#2e2e2e"/>
  <path id="Caminho_494" data-name="Caminho 494" d="M265,461.722c1.423.956,3.32,1.433,5.691,2.389,8.063,1.911,11.383-5.255,12.331-10.033a3.468,3.468,0,0,0-2.846-.956h-1.423c-.949-.956-2.371-3.822-2.846-8.122h-.474l-6.166,1.911a18.025,18.025,0,0,0,.474,3.822c0,1.433,0,2.867-.474,3.344h-.474v.478C268.32,454.556,266.423,457.422,265,461.722Z" transform="translate(-172.99 -319.238)" fill="#ffb3c5"/>
  <path id="Caminho_495" data-name="Caminho 495" d="M274,446.911a18.026,18.026,0,0,0,.474,3.822c3.32-.478,5.217-3.822,5.691-5.733Z" transform="translate(-177.721 -319.238)" fill="#fc87a3"/>
  <path id="Caminho_496" data-name="Caminho 496" d="M267.238,436.289s9.011-.478,8.537-6.211c-.474-5.255.474-9.078-5.217-9.078s-6.64,2.389-6.64,4.3C263.444,427.211,265.341,436.289,267.238,436.289Z" transform="translate(-172.382 -306.704)" fill="#ffb3c5"/>
  <path id="Caminho_497" data-name="Caminho 497" d="M262.364,420.79c.949-1.433,2.371-1.433,2.846-.956a6.258,6.258,0,0,1,8.063.956,8.314,8.314,0,0,0,3.794,5.733,9.412,9.412,0,0,1-5.217.478c-1.423,0-2.371-.956-3.32-1.911,1.9,2.389,3.794,4.3,3.794,4.3-4.269-1.911-6.64-8.122-6.64-8.6a3.93,3.93,0,0,0-1.9,2.867c-.474,1.433-1.9,3.344-2.846,3.344A9.888,9.888,0,0,1,262.364,420.79Z" transform="translate(-170.828 -305.539)" fill="#2e2e2e"/>
  <path id="Caminho_498" data-name="Caminho 498" d="M279.611,487.233c.949-3.822,3.32-20.067.949-25.322C279.611,460,275.817,460,272.023,460c-.949.956-5.691,3.822-7.589,3.344h-.474c-.949,0-.949-.956-.474-1.433a24.039,24.039,0,0,0-4.269.478c-1.423,0-5.217,1.911-5.217,1.911a13.5,13.5,0,0,0,4.743,4.778c-.474,4.3,0,6.211,4.743,15.767,3.32,8.122-.474,15.767-.474,15.767s21.343,17.678,21.817,8.6C284.828,502.522,278.663,492.489,279.611,487.233Z" transform="translate(-167.207 -327.071)" fill="#ff4311"/>
  <path id="Caminho_499" data-name="Caminho 499" d="M247.822,532.255c-.949,0-1.9-.956-2.846-1.911v-.478c-2.846-3.822-3.794-15.289-9.011-27.711-1.423-2.867-6.166-3.344-7.588-6.689,0,0-3.32-10.989,6.166-11.467,9.486,0,25.137,30.578,25.611,33.922C260.153,520.789,266.319,534.166,247.822,532.255Z" transform="translate(-153.44 -339.604)" fill="#262626"/>
  <path id="Caminho_500" data-name="Caminho 500" d="M191,576.689h13.28a7.159,7.159,0,0,0,0-3.344,2.863,2.863,0,0,1,0-3.344,4.25,4.25,0,0,1-2.371.478c-.474,0-1.423-.478-1.9-.478l-3.794,3.822C195.269,574.3,191,574.3,191,576.689Z" transform="translate(-134.086 -384.516)" fill="#eb3d0f"/>
  <path id="Caminho_501" data-name="Caminho 501" d="M282.562,473s1.9,15.767-9.486,19.111c-11.383,3.822-14.7-14.811-5.217-15.767A100.384,100.384,0,0,0,282.562,473Z" transform="translate(-171.581 -333.86)" fill="#eb3d0f"/>
  <path id="Caminho_502" data-name="Caminho 502" d="M217.108,487.07c-.949,6.211-3.794,25.322-9.486,34.878-1.9,3.344,4.743,4.778,4.743,4.778.474,0,1.9-1.433,2.846-1.911,4.269-4.3,13.754-16.244,13.754-25.322,0-4.778,0-13.378-3.32-15.767C223.748,482.77,217.582,484.681,217.108,487.07Z" transform="translate(-142.646 -339.33)" fill="#262626"/>
  <path id="Caminho_503" data-name="Caminho 503" d="M264.91,531.249a14.114,14.114,0,0,1-1.423-1.911c-.949-1.433-1.9-4.778-3.32-8.6-1.423-4.3-3.32-9.556-5.217-14.811-.949-1.433-1.423-3.344-2.371-4.778-1.423-3.344-5.217-2.867-6.166-6.211,0,0-5.217-11.467,4.269-11.944s27.508,31.055,28.457,34.4S285.779,534.594,264.91,531.249Z" transform="translate(-162.466 -339.076)" fill="#2e2e2e"/>
  <path id="Caminho_504" data-name="Caminho 504" d="M212,576.689h13.28a4.716,4.716,0,0,0-.474-3.344c-.474-1.433-.474-2.389.474-3.344a4.25,4.25,0,0,1-2.371.478c-.949,0-1.423-.478-1.9-.478-.949.478-3.32,3.344-3.794,3.822C216.269,574.3,212,574.3,212,576.689Z" transform="translate(-145.126 -384.516)" fill="#ff4311"/>
  <path id="Caminho_505" data-name="Caminho 505" d="M271.217,535.889c-1.423-4.3-3.32-9.555-5.217-14.811.474-3.822,1.423-7.644,3.794-9.078C269.794,512,274.537,527.767,271.217,535.889Z" transform="translate(-173.515 -354.227)" fill="#262626"/>
  <path id="Caminho_506" data-name="Caminho 506" d="M236.187,486.764c-.949,6.211-1.9,25.8-7.588,35.355-1.9,3.344,4.268,4.778,4.268,4.778.949,0,2.371-1.433,3.32-1.911,4.269-4.3,13.754-16.244,13.754-25.322,0-4.778-5.691-12.9-8.537-15.289C239.032,482.942,236.187,484.375,236.187,486.764Z" transform="translate(-153.662 -339.502)" fill="#2e2e2e"/>
  <path id="Caminho_507" data-name="Caminho 507" d="M182.257,448.433,196.011,447a1.652,1.652,0,0,1,.949.478l5.217,13.378a1.024,1.024,0,0,1-.949.956l-13.754.478c-.474,0-.474,0-.949-.478l-4.743-11.944A.918.918,0,0,1,182.257,448.433Z" transform="translate(-129.137 -320.282)" fill="#eb3d0f"/>
  <path id="Caminho_508" data-name="Caminho 508" d="M179.949,448.433,193.7,447c.474,0,.474.478.949.956l4.743,12.9c.474.478,0,.956-.949,1.433l-13.28.478a1.652,1.652,0,0,1-.949-.478L179,449.867C179,449.389,179,448.911,179.949,448.433Z" transform="translate(-127.778 -320.282)" fill="#ff4311"/>
  <path id="Caminho_509" data-name="Caminho 509" d="M196.782,461.956c-.474-.478,0-.956.474-.956a1.024,1.024,0,0,1,.949.956c.474.478,0,.956-.474.956A1.024,1.024,0,0,1,196.782,461.956Z" transform="translate(-137.023 -327.593)" fill="#eb3d0f"/>
  <path id="Caminho_510" data-name="Caminho 510" d="M181,452.478l.474-.478a.467.467,0,0,1,.474.478v.478C181.474,452.956,181.474,452.956,181,452.478Z" transform="translate(-128.829 -322.893)" fill="#9e332e"/>
  <path id="Caminho_511" data-name="Caminho 511" d="M248.607,461.695s-18.971,7.167-21.817,6.689c-1.9,0-17.548-5.256-17.548-5.256a5.259,5.259,0,0,0-2.371-2.389,9.508,9.508,0,0,0-2.846-.956c-.474-.478-.474,0,0,.478,0,.478,0,.478.474.956a20.407,20.407,0,0,0-2.371.478c-.949.478-3.32.956-2.371,2.389.474.956,3.794,1.433,5.217.956a10.272,10.272,0,0,1,2.846.478S223,475.55,227.265,475.55c8.063-.478,21.817-5.256,23.24-6.211C252.4,468.384,253.35,462.65,248.607,461.695Z" transform="translate(-138.574 -326.855)" fill="#ffb3c5"/>
  <path id="Caminho_512" data-name="Caminho 512" d="M183.893,461.829s1.423-1.911,1.9-1.911c.949-.478.949,1.433.949,2.389-.474,1.433-1.423,2.389-1.9,2.389C184.841,464.7,183.418,463.262,183.893,461.829Z" transform="translate(-130.299 -326.989)" fill="#ffb27d"/>
  <path id="Caminho_513" data-name="Caminho 513" d="M183.957,465a3.775,3.775,0,0,0,1.9,3.822Z" transform="translate(-130.363 -329.682)" fill="#ffb27d"/>
  <path id="Caminho_514" data-name="Caminho 514" d="M268,445.768s.949-.478,3.32,0a2.053,2.053,0,0,1-1.9.956A1.756,1.756,0,0,1,268,445.768Z" transform="translate(-174.567 -319.528)" fill="#fff"/>
  <path id="Caminho_515" data-name="Caminho 515" d="M282,466.678s1.9,5.733,7.589,6.689c0,0,9.96-2.867,5.217-9.555C294.806,463.812,290.063,459.989,282,466.678Z" transform="translate(-181.927 -328.494)" fill="#eb3d0f"/>
  <path id="Caminho_516" data-name="Caminho 516" d="M356.639,287.933h0c-.474.956-.949,1.433-.949,2.389a43.927,43.927,0,0,1-9.011,11.944A48.306,48.306,0,0,1,332.451,312.3a47.71,47.71,0,0,1-35.1,0,44.809,44.809,0,0,1-14.7-10.033,50.151,50.151,0,0,1-9.486-14.333,41.565,41.565,0,0,1-2.846-10.989,3.6,3.6,0,0,1-.474-2.389v-5.733a35.866,35.866,0,0,1,1.9-12.422c0-.478.474-.956.474-1.911.474-.478.474-1.433.949-1.911l1.423-2.867c.474-.956.949-1.433,1.423-2.389.949-2.389,2.846-4.3,4.269-6.689.949-.478,1.423-1.433,2.371-2.389h0a39.462,39.462,0,0,1,11.857-8.6l2.846-1.433h.474a43.465,43.465,0,0,1,17.074-3.344,44.136,44.136,0,0,1,17.548,3.344,48.307,48.307,0,0,1,14.228,10.033,43.188,43.188,0,0,1,9.96,14.333,48.725,48.725,0,0,1,0,35.355Zm2.371-36.311a50.761,50.761,0,0,0-25.611-25.8A49.284,49.284,0,0,0,314.9,222a51.715,51.715,0,0,0-18.971,3.822,3.585,3.585,0,0,0-1.9.956,11.866,11.866,0,0,0-3.32,1.911,37.09,37.09,0,0,0-9.96,7.644,6.592,6.592,0,0,0-1.423,1.911c-.949.478-1.423,1.433-2.371,2.389l-2.846,4.3a10.457,10.457,0,0,0-1.423,2.389,17.036,17.036,0,0,0-1.9,4.3l-1.423,2.867c0,.956-.474,1.433-.474,2.389a37.455,37.455,0,0,0-1.9,10.033v9.078a40.465,40.465,0,0,0,3.794,12.9,55.226,55.226,0,0,0,9.96,15.767,52.5,52.5,0,0,0,15.177,10.033,51.715,51.715,0,0,0,18.971,3.822,49.284,49.284,0,0,0,18.5-3.822,46.827,46.827,0,0,0,15.177-10.033,48.532,48.532,0,0,0,10.434-15.289v-.478c.474-.478.474-.956.949-1.911a49.538,49.538,0,0,0,2.846-16.722A48.394,48.394,0,0,0,359.01,251.622Zm-89.165,18.633v-1.433a35.866,35.866,0,0,1,1.9-12.422,5.975,5.975,0,0,0-2.846.478,37.455,37.455,0,0,0-1.9,10.033V273.6a6.708,6.708,0,0,1,2.846.956v-4.3Z" transform="translate(-174.041 -202.782)" fill="#fff"/>
  <path id="Caminho_517" data-name="Caminho 517" d="M350.852,315.322h-3.794a3.822,3.822,0,0,1,.949,4.3c-.949,1.433-2.846,2.389-5.217,2.867-.949.478-2.371.478-3.32.956a86.472,86.472,0,0,1-12.331.956,199.433,199.433,0,0,1-41.737-4.778,191.916,191.916,0,0,1-27.508-7.167c-.949-.478-2.371-.956-3.32-1.433-.474-.478-1.423-.478-1.9-.956a6.708,6.708,0,0,0-2.846-.956,3.585,3.585,0,0,0-1.9-.956c-8.537-4.3-12.806-8.6-10.908-11.467,1.423-2.389,6.64-3.822,14.7-4.3a5.976,5.976,0,0,1,2.846-.478c0-.478.474-.956.474-1.911H252.2c-9.96.956-15.177,2.389-17.074,5.733-2.371,3.822.474,8.6,10.434,13.856a16.783,16.783,0,0,1,4.268,1.911,8.744,8.744,0,0,0,3.32.956c.474.478.949.478,1.423.956a8.743,8.743,0,0,1,3.32.956,163.565,163.565,0,0,0,26.56,7.167,228.51,228.51,0,0,0,37.942,4.778h5.217c3.794,0,7.589-.478,10.909-.478a30.058,30.058,0,0,1,3.32-.956c4.743-.956,8.063-2.389,9.011-4.778C351.8,318.667,351.8,317.233,350.852,315.322Z" transform="translate(-156.871 -238.293)" fill="#fff"/>
  <path id="Caminho_518" data-name="Caminho 518" d="M347.74,281.27h-.474c-1.423,2.389-4.743,3.822-9.011,3.822a46.961,46.961,0,0,1-7.588-.956,94.643,94.643,0,0,1-30.354-12.9c-9.96-6.689-18.971-14.333-24.188-21.5a.467.467,0,0,1-.474-.478c-.474-.478-.949-1.433-1.423-1.911-4.269-6.211-5.217-11.467-3.32-14.333,1.423-2.389,4.743-3.822,9.486-3.822a48.987,48.987,0,0,1,7.114.956,8.744,8.744,0,0,1,3.32.956,11.1,11.1,0,0,1,3.794.956l2.846-1.433h.474a32.529,32.529,0,0,0-3.794-1.433,14.516,14.516,0,0,0-6.166-1.433c-9.486-2.389-16.6-.956-19.445,3.822-2.846,4.3-.949,10.511,4.269,18.155a1.024,1.024,0,0,0,.949.956c0,.478.474.956.949,1.433a97.525,97.525,0,0,0,24.188,21.022c10.908,6.689,21.817,11.467,31.3,13.856a48.421,48.421,0,0,0,8.063.478c5.217,0,9.486-1.433,11.383-4.778.474-.478.474-.956.949-1.433Z" transform="translate(-174.153 -205.197)" fill="#fff"/>
  <path id="Caminho_519" data-name="Caminho 519" d="M353.987,230.867c-5.217,0-16.125,14.811-24.663,38.222-4.268,11.467-7.114,22.933-7.588,31.533-.949,9.555.949,13.855,2.846,14.333h.474c5.217,0,16.126-14.333,24.663-38.222a131.215,131.215,0,0,0,7.589-31.533c.949-9.555-.949-13.378-2.846-14.333Zm-28.931,86.955a1.734,1.734,0,0,1-1.423-.478c-8.537-2.867-4.743-27.233,3.32-49.211C334.068,248.544,345.45,228,353.987,228c.474,0,.949.478,1.423.478,4.743,1.911,5.217,10.033,4.269,17.2-.474,9.078-3.32,20.067-7.589,32.011C344.976,297.278,333.593,317.822,325.056,317.822Z" transform="translate(-201.269 -205.915)" fill="#fff"/>
  <path id="Caminho_520" data-name="Caminho 520" d="M367.657,272.1a101.088,101.088,0,0,1-25.137-2.867Q329,266.367,319.754,259.2c-10.908-7.644-13.28-15.767-13.754-16.244l2.371-.956c.474,0,2.846,8.122,12.806,15.289,9.486,6.689,27.508,14.333,59.759,11.467l.474,2.389C376.668,271.622,371.925,272.1,367.657,272.1Z" transform="translate(-194.544 -213.226)" fill="#fff"/>
  <path id="Caminho_521" data-name="Caminho 521" d="M341.3,380.233c-18.023-13.378-35.571-19.589-46.954-21.978-12.806-2.867-20.868-2.867-21.343-2.867V353a106.855,106.855,0,0,1,21.817,2.867c11.857,2.389,29.88,8.6,47.9,22.455Z" transform="translate(-177.195 -271.193)" fill="#fff"/>
  <path id="Caminho_522" data-name="Caminho 522" d="M1026.536,598.555a9.761,9.761,0,0,1-2.846,7.167,9.616,9.616,0,0,1-7.114,2.867H935V589h83.948A9.747,9.747,0,0,1,1026.536,598.555Z" transform="translate(-525.221 -394.438)" fill="#eee"/>
  <path id="Caminho_523" data-name="Caminho 523" d="M853.445,598.555a9.761,9.761,0,0,1-2.846,7.167h0a9.616,9.616,0,0,1-7.114,2.867H751V589h92.959c2.371,0,5.217.956,6.64,2.867A9.467,9.467,0,0,1,853.445,598.555Z" transform="translate(-428.489 -394.438)" fill="#fff"/>
  <path id="Caminho_524" data-name="Caminho 524" d="M855.25,625.433c0,.478,0,.956-.474.956,0,.478-.474.478-.948.478H741.9c-.948,0-1.9-.478-1.9-1.433a1.672,1.672,0,0,1,.474-.956A1.734,1.734,0,0,1,741.9,624h111.93A1.262,1.262,0,0,1,855.25,625.433Z" transform="translate(-422.706 -412.716)" fill="#d8d5d5"/>
  <path id="Caminho_525" data-name="Caminho 525" d="M855.25,590.433c0,.478,0,.956-.474.956,0,.478-.474.478-.948.478H741.9c-.948,0-1.9-.478-1.9-1.433a1.672,1.672,0,0,1,.474-.955A1.734,1.734,0,0,1,741.9,589h111.93A1.262,1.262,0,0,1,855.25,590.433Z" transform="translate(-422.706 -394.438)" fill="#d8d5d5"/>
  <path id="Caminho_526" data-name="Caminho 526" d="M751,609l12.331.478L751,609.956Z" transform="translate(-428.489 -404.883)" fill="#eee"/>
  <path id="Caminho_527" data-name="Caminho 527" d="M751,616l29.405.478H751Z" transform="translate(-428.489 -408.538)" fill="#eee"/>
  <path id="Caminho_528" data-name="Caminho 528" d="M1018.948,589l-27.034,19.589H935V589h83.948Z" transform="translate(-525.221 -394.438)" fill="#d8d5d5"/>
  <path id="Caminho_529" data-name="Caminho 529" d="M371.965,604.933H316V582h56.914c4.743,0,9.011,4.3,9.011,9.555V594.9A9.762,9.762,0,0,1,371.965,604.933Z" transform="translate(-199.801 -390.783)" fill="#ff4311"/>
  <path id="Caminho_530" data-name="Caminho 530" d="M247.5,604.933H183V582h64.977a9.038,9.038,0,0,1,9.011,9.078v4.3A9.549,9.549,0,0,1,247.5,604.933Z" transform="translate(-129.881 -390.783)" fill="#fff"/>
  <path id="Caminho_531" data-name="Caminho 531" d="M257.051,626.345H176.423A1.519,1.519,0,0,1,175,624.911v-.478A1.519,1.519,0,0,1,176.423,623h80.628a1.519,1.519,0,0,1,1.423,1.433v.478A1.519,1.519,0,0,1,257.051,626.345Z" transform="translate(-125.675 -412.194)" fill="#ff4311"/>
  <path id="Caminho_532" data-name="Caminho 532" d="M257.051,585.345H176.423A1.519,1.519,0,0,1,175,583.911v-.478A1.519,1.519,0,0,1,176.423,582h80.628a1.519,1.519,0,0,1,1.423,1.433v.478A1.519,1.519,0,0,1,257.051,585.345Z" transform="translate(-125.675 -390.783)" fill="#ff4311"/>
  <path id="Caminho_533" data-name="Caminho 533" d="M183,606l9.011.478H183Z" transform="translate(-129.881 -403.316)" fill="#f4d2b8"/>
  <path id="Caminho_534" data-name="Caminho 534" d="M183,613l21.343.478L183,613.956Z" transform="translate(-129.881 -406.972)" fill="#f4d2b8"/>
  <path id="Caminho_535" data-name="Caminho 535" d="M491.52,406.956l-8.537,99.855s-.474,6.211,3.794,6.211H523.3s-5.217-1.433-5.217-4.3c0-3.344,9.486-102.722,9.486-102.722Z" transform="translate(-287.579 -298.871)" fill="#262626"/>
  <path id="Caminho_536" data-name="Caminho 536" d="M528.314,509.022h-36.52c-2.846,0-3.794-2.867-3.794-4.3a4.97,4.97,0,0,1,.474-1.911v-2.389l.474-6.689.474-5.733.948-7.644.474-6.211,5.691-71.189L532.582,402s-3.794,41.566-6.64,72.144a72.306,72.306,0,0,0-.949,9.556c0,.956-.474,1.911-.474,2.867,0,2.867-.474,5.733-.474,7.644a10.591,10.591,0,0,0-.474,3.822,59.764,59.764,0,0,0-.474,7.167v.478C523.571,509.022,527.84,509.022,528.314,509.022Z" transform="translate(-290.225 -296.782)" fill="#2e2e2e"/>
  <path id="Caminho_537" data-name="Caminho 537" d="M316,294l20.394,82.177,2.846,11.467,9.486,38.222H524.209L489.587,294Z" transform="translate(-199.801 -240.382)" fill="#2e2e2e"/>
  <path id="Caminho_538" data-name="Caminho 538" d="M312.846,294l-2.846.956,31.777,133.777,3.794-2.867Z" transform="translate(-196.647 -240.382)" fill="#2e2e2e"/>
  <path id="Caminho_539" data-name="Caminho 539" d="M377,572.867H551.535L556.278,570H380.794Z" transform="translate(-231.87 -384.516)" fill="#262626"/>
  <path id="Caminho_540" data-name="Caminho 540" d="M506,627.911h37.943V626H506Z" transform="translate(-299.688 -413.76)" fill="#2e2e2e"/>
  <path id="Caminho_541" data-name="Caminho 541" d="M515.146,401.5,486.69,295.911H315V294H489.061l28.457,107.5Z" transform="translate(-199.276 -240.382)" fill="#2e2e2e"/>
  <path id="Caminho_542" data-name="Caminho 542" d="M526.045,576l-.474,1.433L490,584.6l.474-5.733.474-2.867Z" transform="translate(-291.276 -387.649)" fill="#262626"/>
  <path id="Caminho_543" data-name="Caminho 543" d="M528.314,613.989h-36.52c-2.846,0-3.794-2.867-3.794-4.3L523.571,603a59.762,59.762,0,0,0-.474,7.167v.478C523.571,613.989,527.84,613.989,528.314,613.989Z" transform="translate(-290.225 -401.749)" fill="#262626"/>
  <path id="Caminho_544" data-name="Caminho 544" d="M451.319,501.467l-76.833,26.756L365,490Z" transform="translate(-225.562 -342.738)" fill="#262626"/>
  <path id="Caminho_545" data-name="Caminho 545" d="M316,294H489.587l27.983,106.066H341.137Z" transform="translate(-199.801 -240.382)" fill="#d8d5d5"/>
  <path id="Caminho_546" data-name="Caminho 546" d="M569.4,538.778A6.607,6.607,0,0,0,563.713,534a4.037,4.037,0,0,0-3.794,4.778,6.113,6.113,0,0,0,5.691,4.778A4.037,4.037,0,0,0,569.4,538.778Z" transform="translate(-327.996 -365.716)" fill="#262626"/>
  <path id="Caminho_547" data-name="Caminho 547" d="M517.392,401.555H354.714l-18.023-73.577-1.423-5.733-1.423-4.778L331,306H491.307l2.846,11.467,1.423,4.778L497,327.978Z" transform="translate(-207.687 -246.649)" fill="#fff"/>
  <path id="Caminho_548" data-name="Caminho 548" d="M494.153,317.467H333.846L331,306H491.307Z" transform="translate(-207.687 -246.649)" fill="#eee"/>
  <path id="Caminho_549" data-name="Caminho 549" d="M345,315.433c0-.956.474-1.433.949-1.433.949,0,1.9.478,1.9,1.433s-.474,1.433-.949,1.433C345.949,316.867,345,316.389,345,315.433Z" transform="translate(-215.047 -250.826)" fill="#d8d5d5"/>
  <path id="Caminho_550" data-name="Caminho 550" d="M354.794,315.433c-.474-.956,0-1.433.949-1.433s1.423.478,1.9,1.433c0,.956-.474,1.433-.949,1.433C355.742,316.867,354.794,316.389,354.794,315.433Z" transform="translate(-220.098 -250.826)" fill="#d8d5d5"/>
  <path id="Caminho_551" data-name="Caminho 551" d="M365.794,315.433c-.474-.956,0-1.433.949-1.433a1.519,1.519,0,0,1,1.423,1.433c.474.956,0,1.433-.949,1.433A1.519,1.519,0,0,1,365.794,315.433Z" transform="translate(-225.881 -250.826)" fill="#d8d5d5"/>
  <path id="Caminho_552" data-name="Caminho 552" d="M389,476.211c0-3.344,2.371-6.211,5.691-6.211a6,6,0,0,1,6.166,6.211c0,3.344-2.371,5.733-6.166,5.733A5.5,5.5,0,0,1,389,476.211Z" transform="translate(-238.179 -332.293)" fill="#ff4311"/>
  <path id="Caminho_553" data-name="Caminho 553" d="M398.949,475l3.794,3.344v.955l-3.32,2.867a.907.907,0,0,1-1.423-.478v-5.733A.931.931,0,0,1,398.949,475Z" transform="translate(-242.91 -334.904)" fill="#e9f3fe"/>
  <path id="Caminho_554" data-name="Caminho 554" d="M550.159,482.956c0,.478,0,.478-.474.956a1.652,1.652,0,0,1-.949.478H425.423A1.521,1.521,0,0,1,424,482.956a.467.467,0,0,1,.474-.478c0-.478.474-.478.949-.478H548.736C549.685,482,550.159,482.478,550.159,482.956Z" transform="translate(-256.579 -338.56)" fill="#ff8665"/>
  <path id="Caminho_555" data-name="Caminho 555" d="M439.177,482v2.389H425.423A1.521,1.521,0,0,1,424,482.956a.467.467,0,0,1,.474-.478c0-.478.474-.478.949-.478Z" transform="translate(-256.579 -338.56)" fill="#ff4311"/>
  <path id="Caminho_556" data-name="Caminho 556" d="M520.787,399.811H413.126l-12.331-44.433-.949-3.344-.949-2.867L397,342H503.239l1.9,7.167.949,2.867.949,3.344Z" transform="translate(-242.385 -265.449)" fill="#eee"/>
  <path id="Caminho_557" data-name="Caminho 557" d="M577.788,373.111H542.217L538.423,358.3l-.474-.956v-.956L537,354h35.1l.474,2.389.474.956.474.956Z" transform="translate(-315.985 -271.715)" fill="#fff"/>
  <path id="Caminho_558" data-name="Caminho 558" d="M563.228,379.211H550.9l-1.423-4.778v-.956L549,373h12.331v.478l.474.478v.478Z" transform="translate(-322.294 -281.638)" fill="#eee"/>
  <path id="Caminho_559" data-name="Caminho 559" d="M596.229,379.211H583.9l-1.423-4.778v-.956L582,373h12.331v.956l.474.478Z" transform="translate(-339.643 -281.638)" fill="#eee"/>
  <path id="Caminho_560" data-name="Caminho 560" d="M567.766,359.478H545a.466.466,0,0,1,.474-.478h22.291c.474,0,.474,0,.474.478Z" transform="translate(-320.191 -274.326)" fill="#eee"/>
  <path id="Caminho_561" data-name="Caminho 561" d="M569.766,362.956H547.474c-.474,0-.474,0-.474-.478a.467.467,0,0,1,.474-.478h22.291l.474.478A.466.466,0,0,1,569.766,362.956Z" transform="translate(-321.242 -275.893)" fill="#eee"/>
  <path id="Caminho_562" data-name="Caminho 562" d="M574.611,368.478H549.474A.466.466,0,0,1,549,368h26.086C575.086,368.478,575.086,368.478,574.611,368.478Z" transform="translate(-322.294 -279.026)" fill="#eee"/>
  <path id="Caminho_563" data-name="Caminho 563" d="M591.788,421.111H556.217L552.423,406.3l-.474-.955v-.956L551,402h35.1l.474,2.389.474.956.474.955Z" transform="translate(-323.345 -296.782)" fill="#fff"/>
  <path id="Caminho_564" data-name="Caminho 564" d="M577.228,426.689H564.9l-1.423-4.778v-.956L563,420h12.331v1.433l.474.478Z" transform="translate(-329.654 -306.182)" fill="#eee"/>
  <path id="Caminho_565" data-name="Caminho 565" d="M610.229,426.689H597.9l-1.423-4.778v-.956L596,420h12.331v1.433l.474.478Z" transform="translate(-347.003 -306.182)" fill="#eee"/>
  <path id="Caminho_566" data-name="Caminho 566" d="M581.766,407.478H559.474A.466.466,0,0,1,559,407h23.24C582.24,407.478,582.24,407.478,581.766,407.478Z" transform="translate(-327.551 -299.393)" fill="#eee"/>
  <path id="Caminho_567" data-name="Caminho 567" d="M583.766,410.956H561.474a.478.478,0,0,1,0-.956h22.291l.474.478Z" transform="translate(-328.603 -300.96)" fill="#eee"/>
  <path id="Caminho_568" data-name="Caminho 568" d="M584.766,414.478H562a.466.466,0,0,1,.474-.478h22.291c.474,0,.474,0,.474.478Z" transform="translate(-329.128 -303.049)" fill="#eee"/>
  <path id="Caminho_569" data-name="Caminho 569" d="M226.228,604a5.253,5.253,0,0,0-2.371,2.389,1.485,1.485,0,0,0-.474.955v6.689l-5.691-2.389L212,614.033v-6.211a5.181,5.181,0,0,1,1.423-3.344c.474,0,.949-.478,1.423-.478Z" transform="translate(-145.126 -402.271)" fill="#2e2e2e"/>
  <path id="Caminho_570" data-name="Caminho 570" d="M226.228,604a5.253,5.253,0,0,0-2.371,2.389L212,606.867A3.8,3.8,0,0,1,214.846,604Z" transform="translate(-145.126 -402.271)" fill="#262626"/>
  <path id="Caminho_571" data-name="Caminho 571" d="M821.806,556.622h68.771V527H820.857A11.785,11.785,0,0,0,809,538.944V544.2A12.7,12.7,0,0,0,821.806,556.622Z" transform="translate(-458.981 -362.06)" fill="#2e2e2e"/>
  <path id="Caminho_572" data-name="Caminho 572" d="M964.857,556.622h79.679V527H964.383A11.584,11.584,0,0,0,953,538.467v6.211A11.785,11.785,0,0,0,964.857,556.622Z" transform="translate(-534.684 -362.06)" fill="#fff"/>
  <path id="Caminho_573" data-name="Caminho 573" d="M939.9,584.3h99.125a1.743,1.743,0,0,0,1.9-1.911v-.478a2.048,2.048,0,0,0-1.9-1.911H939.9a2.048,2.048,0,0,0-1.9,1.911v.478A1.743,1.743,0,0,0,939.9,584.3Z" transform="translate(-526.799 -389.738)" fill="#2e2e2e"/>
  <path id="Caminho_574" data-name="Caminho 574" d="M939.9,531.3h99.125a1.743,1.743,0,0,0,1.9-1.911v-.478a2.048,2.048,0,0,0-1.9-1.911H939.9a2.048,2.048,0,0,0-1.9,1.911v.478A1.743,1.743,0,0,0,939.9,531.3Z" transform="translate(-526.799 -362.06)" fill="#2e2e2e"/>
  <path id="Caminho_575" data-name="Caminho 575" d="M1133.383,558l-11.383.478,11.383.478Z" transform="translate(-623.531 -378.249)" fill="#eee"/>
  <path id="Caminho_576" data-name="Caminho 576" d="M1116.56,544l-26.56.478h26.56Z" transform="translate(-606.708 -370.938)" fill="#eee"/>
  <path id="Caminho_577" data-name="Caminho 577" d="M1091,545a9.725,9.725,0,0,1,2.372,2.389v7.644l5.217-2.389,5.217,2.389v-6.211a4.353,4.353,0,0,0-1.423-3.344,1.735,1.735,0,0,0-1.423-.478Z" transform="translate(-607.234 -371.46)" fill="#2e2e2e"/>
  <path id="Caminho_578" data-name="Caminho 578" d="M1091,545a9.725,9.725,0,0,1,2.372,2.389h9.96A2.334,2.334,0,0,0,1100.96,545Z" transform="translate(-607.234 -371.46)" fill="#262626"/>
  <path id="Caminho_579" data-name="Caminho 579" d="M774.177,457s-3.32,2.389-4.269,2.389c-1.423,0-5.217-.956-6.166-.478-1.423.478-3.32,2.867-3.794,3.822-.474,1.433,2.846.478,4.268-.478h.949c.949,0,2.846.478,3.32,0a59.062,59.062,0,0,1,7.114-.956Z" transform="translate(-433.17 -325.504)" fill="#ffb3c5"/>
  <path id="Caminho_580" data-name="Caminho 580" d="M764.651,613.978s-.474,6.689-1.9,6.689H749a2.606,2.606,0,0,1,2.371-2.389c1.9-.478,5.691-1.911,7.114-4.778C759.909,610.156,764.651,613.978,764.651,613.978Z" transform="translate(-427.438 -406.516)" fill="#ff4311"/>
  <path id="Caminho_581" data-name="Caminho 581" d="M813.777,392.867s-3.794,27.233-9.96,29.622c-2.846,1.433-16.6,4.3-20.868,4.3,0,0-.949-.478-.949-3.822,0,0,14.7-5.733,16.6-8.6,3.32-4.3-1.9-17.678,1.9-21.5C804.291,388.567,810.931,387.133,813.777,392.867Z" transform="translate(-444.786 -290.038)" fill="#eb3d0f"/>
  <path id="Caminho_582" data-name="Caminho 582" d="M804.417,499.758c-1.423,1.911-2.372,3.822-3.794,5.733-4.269,5.256-8.537,9.556-9.486,13.378,0,.955-.474,1.911-.474,2.867a15.942,15.942,0,0,0-1.423,2.867c-1.423,3.822-4.268,8.122-6.64,11.944-4.743,6.689-9.011,11.944-9.011,11.944H766c.474-.956,3.794-10.033,8.063-21.5l5.691-14.333c.474-.478.474-.956.949-1.911a33.083,33.083,0,0,1,1.423-3.822c4.268-10.989,7.588-19.111,7.588-19.111s17.074-6.689,18.971-2.389C810.108,488.769,808.685,492.113,804.417,499.758Z" transform="translate(-436.375 -339.595)" fill="#262626"/>
  <path id="Caminho_583" data-name="Caminho 583" d="M814.859,578s5.691,3.344,5.217,4.778l-3.32,5.256-3.794,6.689a2.669,2.669,0,0,1-.949-2.867c.949-2.389,1.423-6.211-.474-9.078S814.859,578,814.859,578Z" transform="translate(-460.098 -388.694)" fill="#ff4311"/>
  <path id="Caminho_584" data-name="Caminho 584" d="M782.313,536.166s3.32-3.344,3.794-5.256c0,0-13.754-16.722-16.6-20.544-.474,0,0-.478,0-.478,2.371-2.867,27.508-8.122,30.828-12.9.948-1.911,1.9-3.822,1.9-5.255a11.332,11.332,0,0,0,.474-5.256L777.57,486s-21.343,12.9-23.714,21.978S782.313,536.166,782.313,536.166Z" transform="translate(-429.922 -340.649)" fill="#2e2e2e"/>
  <path id="Caminho_585" data-name="Caminho 585" d="M787,510.933c2.371-2.867,27.508-8.122,30.828-12.9.949-1.911,1.9-3.822,1.9-5.255v-2.867L809.291,488s-3.32,9.555-12.331,12.9C788.9,504.244,787,509.978,787,510.933Z" transform="translate(-447.415 -341.693)" fill="#2e2e2e"/>
  <path id="Caminho_586" data-name="Caminho 586" d="M818,380.944c5.217.956,13.754-3.822,13.754-3.822a11.81,11.81,0,0,1-4.743-6.689v-.956a16.656,16.656,0,0,0-2.846-.478l-3.794,3.344a21.8,21.8,0,0,0,.474,3.822c0,.478.474.956.474,1.433A9.165,9.165,0,0,0,818,380.944Z" transform="translate(-463.712 -279.549)" fill="#ffb3c5"/>
  <path id="Caminho_587" data-name="Caminho 587" d="M829.086,408.755c-.949,10.033,0,24.844-.474,27.711-.949,1.911-9.011.956-12.331,0-.949-.478-2.371-.478-4.269-.956-3.794-1.433-8.537-3.344-9.011-4.778h0v-.478a12.224,12.224,0,0,1,.949-3.344v-7.644h0v-.478a58.394,58.394,0,0,1,.474-8.6,21.578,21.578,0,0,1,.474-5.255c0-4.3.474-8.122,1.423-10.511a14.52,14.52,0,0,1,5.691-8.6l1.423-1.433c1.423.478,3.794,0,5.691-.956S821.5,382,821.971,382C826.714,385.822,830.034,396.811,829.086,408.755Z" transform="translate(-455.827 -286.338)" fill="#ff4311"/>
  <path id="Caminho_588" data-name="Caminho 588" d="M812.011,452.222c-3.794-1.433-8.537-3.344-9.011-4.778h0v-.478a12.225,12.225,0,0,1,.949-3.344v-7.644h0V435.5L821.023,414S832.405,437.889,812.011,452.222Z" transform="translate(-455.827 -303.049)" fill="#eb3d0f"/>
  <path id="Caminho_589" data-name="Caminho 589" d="M823,372.344a21.8,21.8,0,0,0,.474,3.822,9.256,9.256,0,0,0,6.166-5.733v-.956a16.659,16.659,0,0,0-2.846-.478Z" transform="translate(-466.341 -279.549)" fill="#fc87a3"/>
  <path id="Caminho_590" data-name="Caminho 590" d="M816.743,364.651s8.063-1.433,7.114-6.689-.474-9.078-5.691-8.122c-5.217.478-5.691,2.867-6.166,4.778C812,356.051,814.372,364.651,816.743,364.651Z" transform="translate(-460.558 -269.466)" fill="#ffb3c5"/>
  <path id="Caminho_591" data-name="Caminho 591" d="M745.64,452.589h-.474L739,433.478l.474-.478Z" transform="translate(-422.181 -312.971)" fill="#2e2e2e"/>
  <path id="Caminho_592" data-name="Caminho 592" d="M772.868,471H752v1.433l20.868-.478Z" transform="translate(-429.015 -332.816)" fill="#2e2e2e"/>
  <path id="Caminho_593" data-name="Caminho 593" d="M778.758,470.822s-6.64,1.911-9.011,1.911c-2.846-.478-4.743-1.433-5.217-2.389-.474-.478-.949-1.433.949-1.433a15.148,15.148,0,0,0,3.794.478c.474-.478-1.423-.478-1.423-.478a.467.467,0,0,1,.474-.478c.474,0,1.9-.478,2.846-.478.474.478.948,1.433,1.423,1.433S778.284,467,778.284,467Z" transform="translate(-435.379 -330.727)" fill="#ffb3c5"/>
  <path id="Caminho_594" data-name="Caminho 594" d="M814.457,396.3s-.949,27.233-6.64,30.578c-3.32,1.433-16.6,5.733-20.394,6.211,0,0-1.423-.478-1.423-3.822,0,0,13.754-7.167,15.651-10.033,2.371-4.778-3.794-17.2-.474-21.978C804.5,392.955,810.663,390.566,814.457,396.3Z" transform="translate(-446.889 -292.037)" fill="#ff4311"/>
  <path id="Caminho_595" data-name="Caminho 595" d="M820.7,356.565a4.743,4.743,0,0,0-.949-2.867s.474-1.911-.474-2.389c-.474,0-.474,1.433-.949.956a3.724,3.724,0,0,1-2.371-2.867c-.474-1.433-6.166.478-7.114.478-.474.478-2.371-.478-2.846-1.433l1.423-1.433c.474-.956,4.269-5.733,9.486-4.3s5.691,3.822,5.691,5.733C822.126,350.831,823.074,355.609,820.7,356.565Z" transform="translate(-457.404 -265.68)" fill="#2e2e2e"/>
  <path id="Caminho_596" data-name="Caminho 596" d="M949.191,419s2.371,4.3,3.794,12.422c1.423,7.167,2.372,10.033,4.269,11.467s12.805,5.733,12.805,5.733l-.948,1.911s-15.651-2.389-17.074-4.778c-1.9-2.867-8.537-18.155-8.063-21.5C944.448,420.433,949.191,419,949.191,419Z" transform="translate(-529.926 -305.66)" fill="#ffb3c5"/>
  <path id="Caminho_597" data-name="Caminho 597" d="M1033.474,587.989c0,1.433,2.372,1.911,4.743,1.911s1.423.478,4.743.956c3.32.956,4.743,0,5.217-.478,0-.478-1.423-.956-3.32-1.911h-.474c-1.9-.956-2.846-2.867-4.269-4.3s-2.846-6.211-2.846-6.211L1033,577s.948,4.3,1.423,6.211c.474.956,0,1.911-.474,2.867A3.633,3.633,0,0,1,1033.474,587.989Z" transform="translate(-576.742 -388.171)" fill="#ffb3c5"/>
  <path id="Caminho_598" data-name="Caminho 598" d="M1038.743,599.822c2.371,0,1.423.478,4.743.956,3.32.956,4.743,0,5.217-.478,0-.478-1.423-.956-3.32-1.911h0a6.979,6.979,0,0,1-4.743,0c-2.371-.478-4.268-1.911-6.166-2.389a3.633,3.633,0,0,1-.474,1.911C1034,599.344,1036.372,599.822,1038.743,599.822Z" transform="translate(-577.268 -398.094)" fill="#2e2e2e"/>
  <path id="Caminho_599" data-name="Caminho 599" d="M932.607,482.344s30.354-2.389,36.045,1.433c5.691,3.345,14.7,45.389,14.7,45.389a5.178,5.178,0,0,1-1.9.956,21.388,21.388,0,0,1-3.794-.956s-12.806-18.633-13.754-23.411-.949-9.078-2.846-9.078c-2.371,0-28.457,3.345-32.251-3.822-3.794-6.689-.949-13.855-.949-13.855Z" transform="translate(-520.932 -336.993)" fill="#eb3d0f"/>
  <path id="Caminho_600" data-name="Caminho 600" d="M1008.949,597.989c0,1.433,1.9,1.911,4.268,1.911,2.846,0,1.9.478,5.217,1.433,3.32.478,4.743-.478,4.743-.955.474-.478-.948-.956-2.846-1.911h-.474c-1.9-.956-2.846-2.389-4.269-4.3-1.423-1.433-2.846-6.211-2.846-6.211L1008,587s1.423,4.3,1.9,6.211c.474.956,0,2.389-.474,3.344C1009.423,597.033,1008.949,597.511,1008.949,597.989Z" transform="translate(-563.599 -393.394)" fill="#ffb3c5"/>
  <path id="Caminho_601" data-name="Caminho 601" d="M1014.269,610.344c2.846,0,1.9.478,5.217,1.433,3.32.478,4.743-.478,4.743-.956.474-.478-.949-.956-2.846-1.911h0a10.645,10.645,0,0,1-5.217.478c-1.9-.956-4.269-2.389-5.691-2.389,0,.478-.474.956-.474,1.433C1010,609.867,1011.9,610.344,1014.269,610.344Z" transform="translate(-564.65 -403.838)" fill="#2e2e2e"/>
  <path id="Caminho_602" data-name="Caminho 602" d="M917.39,490s26.56,1.433,32.251,5.256,12.806,45.866,12.806,45.866a5.179,5.179,0,0,1-1.9.956,14.621,14.621,0,0,1-3.32-.956s-12.332-19.111-13.28-23.889-.474-9.078-2.371-9.556c-2.372,0-28.457,2.389-32.251-4.778C906.007,495.733,917.39,490,917.39,490Z" transform="translate(-511.406 -342.738)" fill="#ff4311"/>
  <path id="Caminho_603" data-name="Caminho 603" d="M918.628,364.033a6.34,6.34,0,0,0-3.794-.956,1.464,1.464,0,0,1,.949-.478,9.589,9.589,0,0,0-2.371.478c-8.537-4.3-10.908,9.078-10.908,11.944,0,3.344,0,6.689-4.743,9.078-9.011,5.256-2.371,15.289-2.371,15.289l6.166,7.644c0-2.389,9.486-15.767,15.651-19.111,1.9-1.911,2.371-5.733,2.371-6.211a10.578,10.578,0,0,1-1.423,5.733C923.37,383.144,921.948,365.944,918.628,364.033Z" transform="translate(-503.158 -276.015)" fill="#2e2e2e"/>
  <path id="Caminho_604" data-name="Caminho 604" d="M924,409.768a16.9,16.9,0,0,1,5.217,0,11.258,11.258,0,0,1,4.269.956c2.371.956,2.371,5.255-2.846,4.778C925.9,414.546,924,411.2,924,409.768Z" transform="translate(-519.439 -300.728)" fill="#fc87a3"/>
  <path id="Caminho_605" data-name="Caminho 605" d="M933.975,406.078s.474,3.822-2.846,3.822c-1.9-.478-6.64-2.867-6.166-4.778,0-.956,1.9-2.867,1.9-8.122h.474l6.64,1.911a18.208,18.208,0,0,0-.474,3.822C933.5,404.644,933.5,406.078,933.975,406.078Z" transform="translate(-519.928 -294.171)" fill="#ffb3c5"/>
  <path id="Caminho_606" data-name="Caminho 606" d="M936.64,398.911a18.2,18.2,0,0,0-.474,3.822c-3.794-.478-5.217-3.822-6.166-5.733Z" transform="translate(-522.593 -294.171)" fill="#fc87a3"/>
  <path id="Caminho_607" data-name="Caminho 607" d="M926.806,380.682a12.169,12.169,0,0,1-1.9-5.733c-.474-1.911.948-8.6,8.063-7.167a6.9,6.9,0,0,1,3.794,1.433c1.423,1.433,3.32,3.822.474,9.555l-.949,1.911Z" transform="translate(-519.873 -278.808)" fill="#2e2e2e"/>
  <path id="Caminho_608" data-name="Caminho 608" d="M937.042,388.289s-8.537-.478-8.063-6.211c0-5.256-.474-9.078,4.743-9.078,5.691,0,6.64,2.389,7.114,4.3C940.836,379.211,939.413,388.289,937.042,388.289Z" transform="translate(-522.046 -281.638)" fill="#ffb3c5"/>
  <path id="Caminho_609" data-name="Caminho 609" d="M934.857,371.835s-2.846,6.689-6.64,7.167c-3.794.956-5.217-.478-5.217-.478a10.334,10.334,0,0,0,3.794-5.733S932.96,368.968,934.857,371.835Z" transform="translate(-518.913 -280.472)" fill="#2e2e2e"/>
  <path id="Caminho_610" data-name="Caminho 610" d="M946,372.98a11.879,11.879,0,0,1,2.371,3.344c0,1.433,0,4.3.949,4.3,0,0,2.372-4.3.474-7.167S946,372.98,946,372.98Z" transform="translate(-531.004 -281.14)" fill="#2e2e2e"/>
  <path id="Caminho_611" data-name="Caminho 611" d="M933.983,446.789c-.948.956-2.846.956-5.217,1.433-1.9.478-3.794.956-5.217,1.433-3.32,1.911-13.754,8.6-16.6,8.122-1.423,0-.949-2.389-.474-5.256,1.423-4.778,3.794-11.467,3.794-14.333,0-1.433.474-5.256.949-9.555a1.485,1.485,0,0,1,.474-.956c.949-8.122,2.846-17.678,2.846-17.678s2.371,4.778,6.166,4.778c4.268,0,3.32-3.822,3.32-3.822s3.794.478,4.743,1.433,2.846,5.256,3.32,6.211c0,0,0,1.433-3.32,2.389a33.67,33.67,0,0,1,.948,6.211c0,1.911-1.423,8.122-1.9,11.944a3.6,3.6,0,0,0,.474,2.389c0,.956.948,1.433,1.9,1.911C932.085,444.878,934.931,445.833,933.983,446.789Z" transform="translate(-509.976 -300.96)" fill="#ff4311"/>
  <path id="Caminho_612" data-name="Caminho 612" d="M930.188,460.156c2.371,3.822-6.166,5.255-7.588,5.733-2.846,1.911-12.806,9.078-15.651,8.6-1.423,0-.949-2.389-.474-5.255,1.423-4.778,3.794-11.467,3.794-14.333,0-1.433.474-5.255.949-9.555L915.011,442s3.794,10.033,7.589,11.944a35.863,35.863,0,0,0,5.217,1.911,3.6,3.6,0,0,0,.474,2.389C928.291,459.2,929.24,459.678,930.188,460.156Z" transform="translate(-509.976 -317.671)" fill="#eb3d0f"/>
  <path id="Caminho_613" data-name="Caminho 613" d="M967,486.956h8.537V486H967Z" transform="translate(-542.045 -340.649)" fill="#262626"/>
  <path id="Caminho_614" data-name="Caminho 614" d="M981,474.422c0-.478,7.589-12.422,7.589-12.422h17.074l-8.537,11.944Z" transform="translate(-549.405 -328.116)" fill="#262626"/>
  <path id="Caminho_615" data-name="Caminho 615" d="M982,474.422,990.063,462h16.125l-8.063,12.422Z" transform="translate(-549.93 -328.116)" fill="#2e2e2e"/>
  <path id="Caminho_616" data-name="Caminho 616" d="M1010.9,473.956c-.474.478-.948.956-1.423.956s-.474-.478-.474-.956a.949.949,0,1,1,1.9,0Z" transform="translate(-564.125 -333.86)" fill="#262626"/>
  <path id="Caminho_617" data-name="Caminho 617" d="M937.98,444.622a24.311,24.311,0,0,0-5.217.956c-3.32-.956-14.228-2.867-14.7-3.822-.948-.956-2.371-25.8-3.794-26.278,0,0-2.846-1.911-6.166,1.911-2.846,3.344,2.371,29.144,6.64,30.578,4.743,1.433,19.446,0,19.446,0h0c.949.478,2.846.478,4.269.956a2.643,2.643,0,0,0,2.846-.478C941.774,447.967,938.454,445.1,937.98,444.622Z" transform="translate(-510.653 -303.571)" fill="#ffb3c5"/>
  <path id="Caminho_618" data-name="Caminho 618" d="M912.434,410s-6.166.478-8.063,2.867c-1.9,1.911-2.371,7.644-2.371,7.644s5.691,4.778,12.331,2.867Z" transform="translate(-507.873 -300.96)" fill="#ff4311"/>
  <path id="Caminho_619" data-name="Caminho 619" d="M614.526,631.433H71.949a1.652,1.652,0,0,1-.949-.478v-.478c0-.478.474-.478.949-.478H614.526a.466.466,0,0,1,.474.478v.478Z" transform="translate(-71 -415.849)" fill="#2e2e2e"/>
  <path id="Caminho_620" data-name="Caminho 620" d="M537.916,383.736s.474-2.389,1.423-2.867c.949,0,2.371-.478,2.846.478.474.478-2.371,4.778-3.32,3.822C537.442,384.214,537.916,383.736,537.916,383.736Z" transform="translate(-316.427 -285.685)" fill="#ffb27d"/>
  <path id="Caminho_621" data-name="Caminho 621" d="M506.126,451.511c-.949-5.256-1.9-8.6-1.9-8.6L490,441s1.9,4.778,4.269,10.511Z" transform="translate(-291.276 -317.149)" fill="#2c3a64"/>
  <path id="Caminho_622" data-name="Caminho 622" d="M490,441s1.9,4.778,4.269,10.511h11.857c-.949-5.256-1.9-8.6-1.9-8.6Z" transform="translate(-291.276 -317.149)" fill="#2e2e2e"/>
  <path id="Caminho_623" data-name="Caminho 623" d="M491.669,445.789a48.485,48.485,0,0,1,.474,7.167H480.76c-1.423-4.3-2.371-8.122-1.9-8.6C480.286,442.444,491.669,445.789,491.669,445.789Z" transform="translate(-285.357 -318.593)" fill="#2e2e2e"/>
  <path id="Caminho_624" data-name="Caminho 624" d="M477.691,372.478s1.9,3.345,1.9,4.778c0,.956-3.794,1.433-5.217.478-1.9-.478-1.9-1.433-1.9-1.433S472,372.478,472,372Z" transform="translate(-281.813 -281.115)" fill="#ffb3c5"/>
  <path id="Caminho_625" data-name="Caminho 625" d="M499.628,383.389s-6.64,7.644-6.64,9.078c-3.794-4.3-9.486-10.033-9.486-10.033a6.819,6.819,0,0,0-3.32-.956,18.22,18.22,0,0,0-4.269-.478h0c.474.478-.474,1.911-1.9,1.911-1.9,0-4.269-.956-4.743-1.911,0,0-3.794,0-3.32,8.122h0a46.974,46.974,0,0,0,2.846,10.989c.474,1.433,2.371,13.378,3.32,13.378a2.069,2.069,0,0,0,1.423.478c.474.478,1.423.478,2.371.956,1.9,0,4.743.478,8.537.478,7.114,0,9.011-1.911,9.011-1.911.474,0-3.794-9.556-6.166-18.155,2.371,1.433,4.743,2.867,5.217,2.867a3.053,3.053,0,0,0,2.371.956h.948a13.049,13.049,0,0,0,1.9-2.389c.949-1.911,1.9-5.256,2.846-7.644a17.033,17.033,0,0,0,1.9-4.3A4.957,4.957,0,0,0,499.628,383.389Z" transform="translate(-278.614 -285.815)" fill="#ff4311"/>
  <path id="Caminho_626" data-name="Caminho 626" d="M476.909,411.856c1.423,5.733-1.423,9.556-3.32,10.989a2.069,2.069,0,0,1-1.423-.478c-.949,0-2.846-11.944-3.32-13.378A46.974,46.974,0,0,1,466,398h.474S475.011,403.256,476.909,411.856Z" transform="translate(-278.659 -294.693)" fill="#eb3d0f"/>
  <path id="Caminho_627" data-name="Caminho 627" d="M478.166,373s-.949,2.389-2.371,2.389c-1.9,0-3.794-1.911-3.794-1.911Z" transform="translate(-281.813 -281.638)" fill="#fc87a3"/>
  <path id="Caminho_628" data-name="Caminho 628" d="M475.537,364.122a2.458,2.458,0,0,1-1.9.956.885.885,0,0,1-1.423,0c-.949,0-2.371-.478-2.846-.478-.949-.478-.949-1.433-1.423-2.867a14.861,14.861,0,0,1-.949-3.822c0-.956.474-1.433,2.371-1.911,3.32,0,4.743.956,5.217,1.911,0,.478,0,.478.474.956C476.011,362.211,476.011,363.644,475.537,364.122Z" transform="translate(-279.185 -272.76)" fill="#ffb3c5"/>
  <path id="Caminho_629" data-name="Caminho 629" d="M473.021,355.25a1.036,1.036,0,0,0-1.423-.478c-1.423,0-.949.956-2.846.956s-2.371-.956-2.846-.478c0,.478.474,2.867.474,2.867s-6.166-8.122,1.423-8.122c0,0,7.588-.478,6.166,7.644Z" transform="translate(-277.617 -269.621)" fill="#2e2e2e"/>
  <path id="Caminho_630" data-name="Caminho 630" d="M516,378Z" transform="translate(-304.945 -284.249)" fill="#ffb27d"/>
  <path id="Caminho_631" data-name="Caminho 631" d="M518,352Z" transform="translate(-305.997 -270.671)" fill="#d35c2b"/>
  <path id="Caminho_632" data-name="Caminho 632" d="M541.423,384.589H540L543.32,365Z" transform="translate(-317.562 -277.46)" fill="#eb3d0f"/>
  <path id="Caminho_633" data-name="Caminho 633" d="M539,383.433s.949,1.433,1.423.478c0-.478,1.423-.956,1.423-1.433.474-.478-1.423-.478-1.9-.478C539.949,382,539,382.956,539,383.433Z" transform="translate(-317.037 -286.338)" fill="#ffb27d"/>
  <path id="Caminho_634" data-name="Caminho 634" d="M479,384h2.846s.474,1.433,0,1.911h-1.9Z" transform="translate(-285.494 -287.382)" fill="#2e2e2e"/>
  <path id="Caminho_635" data-name="Caminho 635" d="M481,388s5.691,22.933,7.114,24.367a10.538,10.538,0,0,0,2.371,1.911s1.423-1.433.949-2.389c0-.478-8.537-23.889-8.537-23.889Z" transform="translate(-286.545 -289.471)" fill="#2e2e2e"/>
  <path id="Caminho_636" data-name="Caminho 636" d="M497,431.911a29.311,29.311,0,0,0,4.743,1.433c1.423,0,2.371-1.911,1.9-2.389a10.7,10.7,0,0,1-1.9.478,2.141,2.141,0,0,0-2.371,0A10.352,10.352,0,0,1,497,430Z" transform="translate(-294.956 -311.404)" fill="#ffb27d"/>
  <path id="Caminho_637" data-name="Caminho 637" d="M478.692,404.411c-6.166-4.3-9.96-6.211-11.383-7.167.474-2.867,0-8.122-1.423-16.244,0,0-5.691.478-6.166,2.389-.948,3.344.949,11.467,2.846,17.678h0c0,.478.474.478.474.956,2.846,1.911,15.651,5.733,15.651,5.733A3.741,3.741,0,0,0,478.692,404.411Z" transform="translate(-275.225 -285.815)" fill="#ff4311"/>
  <path id="Caminho_638" data-name="Caminho 638" d="M494.434,427.867,484.474,425,484,426.433l10.434,2.867Z" transform="translate(-288.122 -308.793)" fill="#fff"/>
  <path id="Caminho_639" data-name="Caminho 639" d="M510.743,423,506,426.822v1.433l5.691-3.822Z" transform="translate(-299.688 -307.749)" fill="#fff"/>
  <path id="Caminho_640" data-name="Caminho 640" d="M494.383,430.822,483,427.478V427l10.908,3.344Z" transform="translate(-287.596 -309.838)" fill="#2e2e2e"/>
  <path id="Caminho_641" data-name="Caminho 641" d="M506.474,429.778l6.166-4.3-.474-.478L506,429.3Z" transform="translate(-299.688 -308.793)" fill="#2e2e2e"/>
  <path id="Caminho_642" data-name="Caminho 642" d="M475.32,381.389,472.474,379c-.474,0-.474.956-.474.956l3.32,1.911Z" transform="translate(-281.813 -284.771)" fill="#2e2e2e"/>
  <path id="Caminho_643" data-name="Caminho 643" d="M484.766,381.33s.949-2.867.949-2.389c0,0,.949.478.949.956a6.689,6.689,0,0,1-1.9,1.911C484.292,381.808,484.766,381.33,484.766,381.33Z" transform="translate(-288.414 -284.712)" fill="#2e2e2e"/>
</svg>
