<svg xmlns="http://www.w3.org/2000/svg" width="210.03" height="244.407" viewBox="0 0 210.03 244.407">
  <g id="img-slider-2" transform="translate(-47.428 0.839)">
    <g id="day92-freelancing" transform="translate(47.428 0)">
      <g id="XMLID_1207_" transform="translate(0 0)">
        <path id="XMLID_1193_" d="M105.015,0c58,0,105.015,9.844,105.015,21.987S163.013,43.974,105.015,43.974,0,34.13,0,21.987,47.017,0,105.015,0Z" transform="translate(0 199.595)" fill="#ff4311" opacity="0.47"/>
        <g id="XMLID_43_" transform="translate(53.036 201.408)">
          <path id="XMLID_1211_" d="M153.823,290.988c1.566-4.974,6.36-7.623,14.144-9.855,4.936-1.395,11.2-2.045,21.026-4a30.657,30.657,0,0,0,8.164-2.789v5.346s-32.512,6.275-37.59,14.5c-2.468,4.044-1.709,13.945,9.92,14.968-3.56.511-9.4-.372-12.53-3.486C153.064,301.819,152.02,296.659,153.823,290.988Z" transform="translate(-152.966 -274.347)" fill="#282323" stroke="#000" stroke-linecap="round" stroke-linejoin="round" stroke-miterlimit="10" stroke-width="1.62"/>
          <path id="XMLID_1210_" d="M196.384,279s-19.46,3.533-29.854,7.9c-9.113,3.858-8.828,7.856-9.065,11.946a9.407,9.407,0,0,0,8.5,9.25c8.258,1.209,17.988-.093,30.423-7.856Z" transform="translate(-152.195 -273.659)" fill="#442c2a"/>
          <path id="XMLID_53_" d="M157.465,297.549c.19-3.3.047-6.554,4.794-9.715a28.015,28.015,0,0,0-.285,3.44c-.142,2.371,5.7-.7,12.625.279,7.214,1.069,11.486,9.157,21.785,3.719V298.9c-12.435,7.763-22.165,9.018-30.423,7.856A9.369,9.369,0,0,1,157.465,297.549Z" transform="translate(-152.195 -272.354)" fill="#161515"/>
          <path id="XMLID_47_" d="M196.384,279s-19.46,3.533-29.854,7.9c-9.113,3.858-8.828,7.856-9.065,11.946a9.407,9.407,0,0,0,8.5,9.25c8.258,1.209,17.988-.093,30.423-7.856Z" transform="translate(-152.195 -273.659)" fill="none" stroke="#000" stroke-linecap="round" stroke-linejoin="round" stroke-miterlimit="10" stroke-width="1.62"/>
          <path id="XMLID_46_" d="M175.411,288.522c-1.566.837-1.187,8.971,2.61,10.087" transform="translate(-149.257 -272.253)" fill="none" stroke="#000" stroke-linecap="round" stroke-linejoin="round" stroke-miterlimit="10" stroke-width="1.62"/>
          <path id="XMLID_45_" d="M180.455,288c-1.614,2.231-.475,7.484,2.421,8.785" transform="translate(-148.368 -272.33)" fill="none" stroke="#000" stroke-linecap="round" stroke-linejoin="round" stroke-miterlimit="10" stroke-width="1.62"/>
          <path id="XMLID_44_" d="M185.112,286.375c-1.614,2.231-.475,7.484,2.421,8.785" transform="translate(-147.567 -272.57)" fill="none" stroke="#000" stroke-linecap="round" stroke-linejoin="round" stroke-miterlimit="10" stroke-width="1.62"/>
        </g>
        <path id="XMLID_77_" d="M246.392,271.656c-10.252,6.973-24.823,10.97-40.058,10.97-15.188,0-29.806-4-40.058-10.97-4.7-3.207-12.578-9.9-12.578-18.826s7.879-15.619,12.578-18.826c10.252-6.973,24.823-10.97,40.058-10.97,15.188,0,29.806,4,40.058,10.97,4.7,3.207,12.577,9.9,12.577,18.826S251.09,268.448,246.392,271.656Z" transform="translate(-102.078 -76.834)" fill="#161515"/>
        <path id="XMLID_76_" d="M285.159,257.343c-.176.93-.351,1.813-.614,2.743-6.844,26.449-39.833,46.53-79.534,46.53-39.789,0-72.866-20.174-79.578-46.716-.175-.744-.351-1.487-.483-2.231a13.4,13.4,0,0,1,.132-4.184c1.623-7.809,10.572-12.318,20-10.087a19.06,19.06,0,0,1,13.161,10.273,18.533,18.533,0,0,0,.965,3.021c2.281,5.578,6.844,9.762,9.914,12.086,9.169,6.973,22.285,10.97,35.885,10.97,13.643,0,26.716-4,35.885-10.97,3.115-2.371,7.721-6.6,9.958-12.179a20.452,20.452,0,0,0,.877-2.789c2.106-4.834,6.975-8.878,13.2-10.366,9.432-2.231,18.381,2.324,20,10.087A11.042,11.042,0,0,1,285.159,257.343Z" transform="translate(-100.564 -77.597)" fill="#262626"/>
        <path id="XMLID_1209_" d="M284.941,252.156a3.584,3.584,0,0,0-.175-.651,21.341,21.341,0,0,1-.526,2.278c-6.756,26.449-39.789,46.53-79.447,46.53-39.789,0-72.866-20.174-79.578-46.716-.088-.279-.132-.558-.219-.883a12.256,12.256,0,0,0-.044,3.579c.132.744.307,1.488.483,2.231,6.712,26.542,39.789,46.716,79.578,46.716,39.7,0,72.691-20.081,79.534-46.53.219-.883.439-1.813.614-2.743A11.306,11.306,0,0,0,284.941,252.156Z" transform="translate(-100.565 -76.314)" fill="#161515" opacity="0.67"/>
        <path id="XMLID_56_" d="M285.159,257.343c-.176.93-.351,1.813-.614,2.743-6.844,26.449-39.833,46.53-79.534,46.53-39.789,0-72.866-20.174-79.578-46.716-.175-.744-.351-1.487-.483-2.231a13.4,13.4,0,0,1,.132-4.184c1.623-7.809,10.572-12.318,20-10.087a19.06,19.06,0,0,1,13.161,10.273,18.533,18.533,0,0,0,.965,3.021c2.281,5.578,6.844,9.762,9.914,12.086,9.169,6.973,22.285,10.97,35.885,10.97,13.643,0,26.716-4,35.885-10.97,3.115-2.371,7.721-6.6,9.958-12.179a20.452,20.452,0,0,0,.877-2.789c2.106-4.834,6.975-8.878,13.2-10.366,9.432-2.231,18.381,2.324,20,10.087A11.042,11.042,0,0,1,285.159,257.343Z" transform="translate(-100.564 -77.597)" fill="none" stroke="#000" stroke-linecap="round" stroke-linejoin="round" stroke-miterlimit="10" stroke-width="1.62"/>
        <ellipse id="XMLID_75_" cx="42.764" cy="14.224" rx="42.764" ry="14.224" transform="translate(62.251 163.765)" fill="#c73514"/>
        <ellipse id="XMLID_31_" cx="42.764" cy="14.224" rx="42.764" ry="14.224" stroke-width="1.62" transform="translate(62.251 163.765)" stroke="#000" stroke-linecap="round" stroke-linejoin="round" stroke-miterlimit="10" fill="none"/>
        <g id="XMLID_89_" transform="translate(42.713 86.842)">
          <path id="XMLID_69_" d="M257.187,231.527H158.655a12.354,12.354,0,0,1-12.435-13.806l4.367-34.166a19.715,19.715,0,0,1,19.744-17.06h75.275a19.785,19.785,0,0,1,19.744,17.06l4.366,34.166A12.477,12.477,0,0,1,257.187,231.527Z" transform="translate(-146.118 -166.495)" fill="#f1534d"/>
          <path id="XMLID_24_" d="M257.187,231.527H158.655a12.354,12.354,0,0,1-12.435-13.806l4.367-34.166a19.715,19.715,0,0,1,19.744-17.06h75.275a19.785,19.785,0,0,1,19.744,17.06l4.366,34.166A12.477,12.477,0,0,1,257.187,231.527Z" transform="translate(-146.118 -166.495)" fill="none" stroke="#000" stroke-linecap="round" stroke-linejoin="round" stroke-miterlimit="10" stroke-width="1.62"/>
          <path id="XMLID_90_" d="M168.075,191.646" transform="translate(-142.344 -162.779)" fill="none" stroke="#000" stroke-linecap="round" stroke-linejoin="round" stroke-miterlimit="10" stroke-width="1.62"/>
          <g id="XMLID_1191_" transform="translate(22.266 28.867)">
            <line id="XMLID_1189_" x1="0.949" y2="11.667" stroke-width="1.62" stroke="#000" stroke-linecap="round" stroke-linejoin="round" stroke-miterlimit="10" fill="none"/>
            <line id="XMLID_1192_" x2="0.949" y2="11.667" stroke-width="1.62" transform="translate(78.835)" stroke="#000" stroke-linecap="round" stroke-linejoin="round" stroke-miterlimit="10" fill="none"/>
          </g>
        </g>
        <g id="XMLID_1194_" transform="translate(42.669 86.045)">
          <path id="XMLID_1202_" d="M257.187,231.527H158.655a12.354,12.354,0,0,1-12.435-13.806l4.367-34.166a19.715,19.715,0,0,1,19.744-17.06h75.275a19.785,19.785,0,0,1,19.744,17.06l4.366,34.166A12.477,12.477,0,0,1,257.187,231.527Z" transform="translate(-146.071 -165.659)" fill="#ff4311"/>
          <g id="XMLID_4_" opacity="0.24">
            <path id="XMLID_1208_" d="M150.546,187.181a19.715,19.715,0,0,1,19.744-17.06h75.275a19.785,19.785,0,0,1,19.744,17.06l4.319,33.887a13.1,13.1,0,0,0,.047-3.347l-4.366-34.166a19.715,19.715,0,0,0-19.744-17.06H170.29a19.785,19.785,0,0,0-19.744,17.06l-4.367,34.166a11.3,11.3,0,0,0,.047,3.347Z" transform="translate(-146.078 -165.659)" fill="#9b2121"/>
            <path id="XMLID_8_" d="M170.471,170.229s5.838,1.023,6.313,4.184c.38,2.557.332,4.23,1.329,5.253a10.479,10.479,0,0,0,8.021,3.114c-2.61-2.557-2.658-11.528-3.37-11.528-.665,0-2.373-4.462-2.373-4.462l-2.278-1.023C178.16,165.766,169.759,166.789,170.471,170.229Z" transform="translate(-141.892 -165.766)" fill="#9b2121"/>
            <path id="XMLID_10_" d="M225.979,170.229s-5.838,1.023-6.312,4.184c-.38,2.557-.332,4.23-1.329,5.253a10.654,10.654,0,0,1-8.021,3.114c2.61-2.557,2.658-11.528,3.37-11.528.664,0,2.373-4.462,2.373-4.462l2.278-1.023C218.29,165.766,226.691,166.789,225.979,170.229Z" transform="translate(-135.035 -165.766)" fill="#9b2121"/>
          </g>
          <path id="XMLID_1201_" d="M257.187,231.527H158.655a12.354,12.354,0,0,1-12.435-13.806l4.367-34.166a19.715,19.715,0,0,1,19.744-17.06h75.275a19.785,19.785,0,0,1,19.744,17.06l4.366,34.166A12.477,12.477,0,0,1,257.187,231.527Z" transform="translate(-146.071 -165.659)" fill="none" stroke="#000" stroke-linecap="round" stroke-linejoin="round" stroke-miterlimit="10" stroke-width="1.62"/>
          <path id="XMLID_1200_" d="M168.075,191.646" transform="translate(-142.296 -161.943)" fill="none" stroke="#000" stroke-linecap="round" stroke-linejoin="round" stroke-miterlimit="10" stroke-width="1.62"/>
          <g id="XMLID_1195_" transform="translate(22.314 29.703)">
            <line id="XMLID_1199_" x1="0.949" y2="11.667" stroke-width="1.62" stroke="#000" stroke-linecap="round" stroke-linejoin="round" stroke-miterlimit="10" fill="none"/>
            <line id="XMLID_1196_" x2="0.949" y2="11.667" stroke-width="1.62" transform="translate(78.835)" stroke="#000" stroke-linecap="round" stroke-linejoin="round" stroke-miterlimit="10" fill="none"/>
          </g>
        </g>
        <g id="XMLID_78_" transform="translate(59.774 64.465)">
          <path id="XMLID_80_" d="M192.121,149.668l-15.615-.79-7.309.79s-4.889,3.579-4.889,4.555.475,8.925.475,8.925,11.533,1.534,12.767,2.7,8.543,7.856,8.543,7.856l7.072-2.7,3.7-9.669Z" transform="translate(-158.138 -143.718)" fill="#e63a14"/>
          <path id="XMLID_72_" d="M190.274,144.423H172.238a13.063,13.063,0,0,0-13.195,12.923h0a13.063,13.063,0,0,0,13.195,12.923h2.373a6.837,6.837,0,0,1,6.93,6.787v.7a8.281,8.281,0,0,0,8.353,8.181h0v-8.367a.2.2,0,0,1,.19.186v-.7A15.318,15.318,0,0,0,174.611,161.9h-2.373a4.556,4.556,0,1,1,0-9.111h18.036Z" transform="translate(-159.044 -144.376)" fill="#ff4311"/>
          <path id="XMLID_81_" d="M189.175,171.808a15.556,15.556,0,0,0-14.524-9.948h-2.373a4.556,4.556,0,1,1,0-9.111h18.036v-8.367H172.279A13.063,13.063,0,0,0,159.084,157.3h0a13.063,13.063,0,0,0,13.195,12.923h2.373a6.837,6.837,0,0,1,6.93,6.787v.7a8.281,8.281,0,0,0,8.353,8.181" transform="translate(-159.037 -144.382)" fill="none" stroke="#000" stroke-linecap="round" stroke-linejoin="round" stroke-miterlimit="10" stroke-width="1.62"/>
        </g>
        <g id="XMLID_28_" transform="translate(106.104 64.465)">
          <path id="XMLID_82_" d="M206.355,149.668l15.615-.79,7.309.79s4.889,3.579,4.889,4.555-.475,8.925-.475,8.925-11.533,1.534-12.767,2.7c-1.234,1.209-8.543,7.856-8.543,7.856l-7.072-2.7-3.7-9.669Z" transform="translate(-201.609 -143.718)" fill="#e63a14"/>
          <path id="XMLID_79_" d="M208.008,144.423h18.036a13.063,13.063,0,0,1,13.195,12.923h0a13.063,13.063,0,0,1-13.195,12.923h-2.373a6.837,6.837,0,0,0-6.93,6.787v.7a8.281,8.281,0,0,1-8.353,8.181h0v-8.367a.2.2,0,0,0-.19.186v-.7A15.318,15.318,0,0,1,223.671,161.9h2.373a4.556,4.556,0,1,0,0-9.111H208.008Z" transform="translate(-200.509 -144.376)" fill="#ff4311"/>
          <path id="XMLID_71_" d="M209.147,171.808a15.556,15.556,0,0,1,14.523-9.948h2.373a4.556,4.556,0,1,0,0-9.111H208.008v-8.367h18.036A13.063,13.063,0,0,1,239.238,157.3h0a13.063,13.063,0,0,1-13.195,12.923h-2.373a6.837,6.837,0,0,0-6.93,6.787v.7a8.281,8.281,0,0,1-8.353,8.181" transform="translate(-200.509 -144.382)" fill="none" stroke="#000" stroke-linecap="round" stroke-linejoin="round" stroke-miterlimit="10" stroke-width="1.62"/>
        </g>
        <ellipse id="XMLID_74_" cx="18.51" cy="18.129" rx="18.51" ry="18.129" transform="translate(84.608 63.402)" fill="#ff4311"/>
        <path id="XMLID_2426_" d="M182.493,156.038a33.321,33.321,0,0,0,17.7,5.113,32.913,32.913,0,0,0,17.7-5.113,18.629,18.629,0,0,0-35.407,0Z" transform="translate(-97.08 -79.436)" fill="#f1534d"/>
        <ellipse id="XMLID_23_" cx="18.51" cy="18.129" rx="18.51" ry="18.129" stroke-width="1.62" transform="translate(84.608 63.402)" stroke="#000" stroke-linecap="round" stroke-linejoin="round" stroke-miterlimit="10" fill="none"/>
        <path id="XMLID_70_" d="M199.2,170.949h0a10.807,10.807,0,0,1-10.916-10.691v-8a2.727,2.727,0,0,1,2.753-2.7h16.374a2.727,2.727,0,0,1,2.753,2.7v8A10.879,10.879,0,0,1,199.2,170.949Z" transform="translate(-96.095 -79.115)" fill="#ffb3c5"/>
        <path id="XMLID_2425_" d="M207.412,149.566H191.037a2.828,2.828,0,0,0-2.753,2.882V159a31.5,31.5,0,0,0,21.833,0v-6.554A2.82,2.82,0,0,0,207.412,149.566Z" transform="translate(-96.094 -78.887)" fill="#fc87a3"/>
        <path id="XMLID_15_" d="M199.2,170.949h0a10.807,10.807,0,0,1-10.916-10.691v-8a2.727,2.727,0,0,1,2.753-2.7h16.374a2.727,2.727,0,0,1,2.753,2.7v8A10.879,10.879,0,0,1,199.2,170.949Z" transform="translate(-96.095 -79.115)" fill="none" stroke="#000" stroke-linecap="round" stroke-linejoin="round" stroke-miterlimit="10" stroke-width="1.62"/>
        <path id="XMLID_25_" d="M188.609,163.7" transform="translate(-95.431 -77.675)" fill="none" stroke="#000" stroke-linecap="round" stroke-linejoin="round" stroke-miterlimit="10" stroke-width="1.62"/>
        <rect id="XMLID_30_" width="10.157" height="31.749" transform="translate(104.345 200.013)" fill="#ff4311"/>
        <rect id="XMLID_33_" width="10.157" height="31.749" stroke-width="1.62" transform="translate(104.345 200.013)" stroke="#000" stroke-linecap="round" stroke-linejoin="round" stroke-miterlimit="10" fill="none"/>
        <path id="XMLID_54_" d="M156.686,255.215a20.68,20.68,0,0,1-1.044-3.021A10.9,10.9,0,0,1,156.686,255.215Z" transform="translate(-98.84 -71.728)" fill="none" stroke="#000" stroke-linecap="round" stroke-linejoin="round" stroke-miterlimit="10" stroke-width="1.62"/>
        <path id="XMLID_51_" d="M241.218,255.1a11.413,11.413,0,0,1,.949-2.789A17.6,17.6,0,0,1,241.218,255.1Z" transform="translate(-90.057 -71.708)" fill="none" stroke="#000" stroke-linecap="round" stroke-linejoin="round" stroke-miterlimit="10" stroke-width="1.62"/>
        <g id="XMLID_88_" transform="translate(41.861 121.545)">
          <path id="XMLID_73_" d="M257.55,260.664H158.591a7.008,7.008,0,0,1-6.977-6l-6.17-47.321a6.971,6.971,0,0,1,6.977-7.763h111.3a6.948,6.948,0,0,1,6.977,7.763l-6.17,47.321A7.049,7.049,0,0,1,257.55,260.664Z" transform="translate(-145.389 -199.537)" fill="#262626"/>
          <path id="XMLID_1188_" d="M264.478,250.986a6.938,6.938,0,0,1-6.977,6H158.59a7.008,7.008,0,0,1-6.977-6l-6.075-46.623a7.292,7.292,0,0,0-.095,2.278l6.17,47.321a6.938,6.938,0,0,0,6.977,6h98.959a7.008,7.008,0,0,0,6.977-6l6.17-47.321a7.291,7.291,0,0,0-.095-2.278Z" transform="translate(-145.388 -198.831)" fill="#333" opacity="0.21"/>
          <path id="XMLID_91_" d="M145.491,207.771a6.994,6.994,0,0,1,6.882-5.671h111.3a6.912,6.912,0,0,1,6.882,5.671l.047-.465a6.971,6.971,0,0,0-6.977-7.763H152.42a6.948,6.948,0,0,0-6.977,7.763Z" transform="translate(-145.389 -199.543)" fill="#7e7e7e" opacity="0.21"/>
          <path id="XMLID_29_" d="M257.55,260.664H158.591a7.008,7.008,0,0,1-6.977-6l-6.17-47.321a6.971,6.971,0,0,1,6.977-7.763h111.3a6.948,6.948,0,0,1,6.977,7.763l-6.17,47.321A7.049,7.049,0,0,1,257.55,260.664Z" transform="translate(-145.389 -199.537)" fill="none" stroke="#000" stroke-linecap="round" stroke-linejoin="round" stroke-miterlimit="10" stroke-width="1.62"/>
          <path id="XMLID_1190_" d="M204.515,224.232a3.79,3.79,0,0,1-3.844-3.765,1.262,1.262,0,0,1,.047-.418,9.41,9.41,0,0,0-1.139-.093,6.184,6.184,0,1,0,6.313,6.182,7.382,7.382,0,0,0-.332-2.045A7.068,7.068,0,0,1,204.515,224.232Z" transform="translate(-137.158 -196.527)" fill="#ff4311" opacity="0.66"/>
        </g>
        <g id="XMLID_39_" transform="translate(112.452 201.408)">
          <path id="XMLID_36_" d="M251.017,290.988c-1.566-4.974-6.36-7.623-14.144-9.855-4.936-1.395-11.2-2.045-21.026-4a30.657,30.657,0,0,1-8.164-2.789v5.346s32.512,6.275,37.59,14.5c2.468,4.044,1.709,13.945-9.92,14.968,3.56.511,9.4-.372,12.53-3.486C251.777,301.819,252.821,296.659,251.017,290.988Z" transform="translate(-207.684 -274.347)" fill="#282323" stroke="#000" stroke-linecap="round" stroke-linejoin="round" stroke-miterlimit="10" stroke-width="1.62"/>
          <path id="XMLID_52_" d="M207.684,279s19.46,3.533,29.854,7.9c9.113,3.858,8.828,7.856,9.065,11.946a9.407,9.407,0,0,1-8.5,9.25c-8.259,1.209-17.988-.093-30.423-7.856Z" transform="translate(-207.684 -273.659)" fill="#161515"/>
          <path id="XMLID_1212_" d="M246.6,297.549c-.19-3.3-.047-6.554-4.794-9.715a28,28,0,0,1,.285,3.44,9.407,9.407,0,0,1-8.5,9.25c-7.214,1.069-15.615.186-25.914-5.253V298.9c12.435,7.763,22.165,9.018,30.423,7.856A9.324,9.324,0,0,0,246.6,297.549Z" transform="translate(-207.684 -272.354)" fill="#2b1d1c" opacity="0.37"/>
          <path id="XMLID_34_" d="M207.684,279s19.46,3.533,29.854,7.9c9.113,3.858,8.828,7.856,9.065,11.946a9.407,9.407,0,0,1-8.5,9.25c-8.259,1.209-17.988-.093-30.423-7.856Z" transform="translate(-207.684 -273.659)" fill="none" stroke="#000" stroke-linecap="round" stroke-linejoin="round" stroke-miterlimit="10" stroke-width="1.62"/>
          <path id="XMLID_37_" d="M223.457,288.522c1.566.837,1.187,8.971-2.61,10.087" transform="translate(-205.421 -272.253)" fill="none" stroke="#000" stroke-linecap="round" stroke-linejoin="round" stroke-miterlimit="10" stroke-width="1.62"/>
          <path id="XMLID_38_" d="M218.367,288c1.614,2.231.475,7.484-2.421,8.785" transform="translate(-206.264 -272.33)" fill="none" stroke="#000" stroke-linecap="round" stroke-linejoin="round" stroke-miterlimit="10" stroke-width="1.62"/>
          <path id="XMLID_40_" d="M213.709,286.375c1.614,2.231.475,7.484-2.421,8.785" transform="translate(-207.064 -272.57)" fill="none" stroke="#000" stroke-linecap="round" stroke-linejoin="round" stroke-miterlimit="10" stroke-width="1.62"/>
        </g>
        <line id="XMLID_83_" y2="24.729" stroke-width="2.43" transform="translate(87.416 98.896)" stroke="#000" stroke-linecap="round" stroke-linejoin="round" stroke-miterlimit="10" fill="none"/>
        <line id="XMLID_84_" y2="17.431" stroke-width="2.43" transform="translate(117.567 99.139)" stroke="#000" stroke-linecap="round" stroke-linejoin="round" stroke-miterlimit="10" fill="none"/>
        <ellipse id="XMLID_27_" cx="3.939" cy="3.858" rx="3.939" ry="3.858" transform="translate(113.599 113.349)"/>
        <ellipse id="XMLID_86_" cx="1.614" cy="1.58" rx="1.614" ry="1.58" transform="translate(115.941 115.188)" fill="#7e7e7e"/>
        <g id="XMLID_41_" transform="translate(67.267)">
          <path id="XMLID_5_" d="M201.993,164.567h0c-16.517,0-29.949-13.108-29.949-29.331V101.209h59.9v34.026C231.941,151.412,218.557,164.567,201.993,164.567Z" transform="translate(-166.111 -80.567)" fill="#ffb3c5"/>
          <path id="XMLID_1198_" d="M201.993,156.663h0c-16.517,0-29.949-13.108-29.949-29.331v4.044c0,16.176,13.384,29.331,29.949,29.331h0c16.517,0,29.949-13.109,29.949-29.331v-4.044C231.941,143.508,218.557,156.663,201.993,156.663Z" transform="translate(-166.111 -76.707)" fill="#fc87a3"/>
          <path id="XMLID_2424_" d="M201.993,164.567h0c-16.517,0-29.949-13.108-29.949-29.331V101.209h59.9v34.026C231.941,151.412,218.557,164.567,201.993,164.567Z" transform="translate(-166.111 -80.567)" fill="none" stroke="#000" stroke-linecap="round" stroke-linejoin="round" stroke-miterlimit="10" stroke-width="1.62"/>
          <path id="XMLID_1197_" d="M232.228,104.9c-.095-1.58-.19-3.207-.237-4.788a451.176,451.176,0,0,1-59.85-.93c-.142,1.813-.237,3.626-.38,5.439.9.79,1.851,1.627,2.753,2.417.759.372,1.756.883,2.658,1.348,3.987,2.045,9.54,4.648,14.856,5.671a28.968,28.968,0,0,0,6.075.511c8.97-.093,16.517-3.579,19.7-5.02a5.82,5.82,0,0,1,1.092-.465,1.4,1.4,0,0,1,.664-.139,13.245,13.245,0,0,1,2.041.279,12.608,12.608,0,0,0,3.655.372,8.853,8.853,0,0,0,4.367-1.441C230.424,107.04,231.326,105.971,232.228,104.9Z" transform="translate(-166.159 -80.866)" fill="#fc87a3"/>
          <path id="XMLID_68_" d="M218.231,89.6s-23.969-15.479-43.808,1.813a15.743,15.743,0,0,0-5.173,12.039v22.405h3.322V109.584a2.015,2.015,0,0,1,1.9-2.138h0c1.709,0,10.964,4.834,18.8,6.182,11.818,2,22.592-3.347,24.918-4.137,3.987-1.395,7.214,3.44,12.245-2h.19a2.044,2.044,0,0,1,1.9,2.138V125.9h3.322V103.588C235.744,98.1,229.289,84.344,218.231,89.6Z" transform="translate(-166.591 -83.224)" fill="#262626"/>
          <g id="XMLID_2783_" transform="translate(2.611 39.562)" opacity="0.34">
            <rect id="XMLID_2784_" width="3.322" height="3.068" fill="#231a17"/>
            <rect id="XMLID_2785_" width="3.322" height="3.068" transform="translate(63.22)" fill="#231a17"/>
          </g>
          <path id="XMLID_3_" d="M218.231,89.6s-23.969-15.479-43.808,1.813a15.743,15.743,0,0,0-5.173,12.039v22.405h3.322V109.584a2.015,2.015,0,0,1,1.9-2.138h0c1.709,0,10.964,4.834,18.8,6.182,11.818,2,22.592-3.347,24.918-4.137,3.987-1.395,7.214,3.44,12.245-2h.19a2.044,2.044,0,0,1,1.9,2.138V125.9h3.322V103.588C235.744,98.1,229.289,84.344,218.231,89.6Z" transform="translate(-166.591 -83.224)" fill="none" stroke="#000" stroke-linecap="round" stroke-linejoin="round" stroke-miterlimit="10" stroke-width="1.62"/>
          <path id="XMLID_6_" d="M198.326,103.452s-25.725,1.627-31.183-11.76" transform="translate(-166.953 -81.973)" fill="none" stroke="#000" stroke-linecap="round" stroke-linejoin="round" stroke-miterlimit="10" stroke-width="1.62"/>
          <path id="XMLID_9_" d="M201.452,101.065s-24.775-1.534-31.23-14.921" transform="translate(-166.424 -82.793)" fill="none" stroke="#000" stroke-linecap="round" stroke-linejoin="round" stroke-miterlimit="10" stroke-width="1.62"/>
          <path id="XMLID_85_" d="M223.155,117.207v15.247c3.322,0,5.98-3.393,5.98-7.623h0C229.135,120.6,226.477,117.207,223.155,117.207Z" transform="translate(-157.324 -78.203)" fill="#ffb3c5"/>
          <path id="XMLID_1205_" d="M223.155,117.936v13.527a8.007,8.007,0,0,0,3.275-6.787h0A7.98,7.98,0,0,0,223.155,117.936Z" transform="translate(-157.324 -78.095)" fill="#fc87a3"/>
          <path id="XMLID_12_" d="M223.155,117.207v15.247c3.322,0,5.98-3.393,5.98-7.623h0C229.135,120.6,226.477,117.207,223.155,117.207Z" transform="translate(-157.324 -78.203)" fill="none" stroke="#000" stroke-linecap="round" stroke-linejoin="round" stroke-miterlimit="10" stroke-width="1.62"/>
          <path id="XMLID_87_" d="M172.962,117.207v15.247c-3.322,0-5.98-3.393-5.98-7.623h0C166.934,120.6,169.639,117.207,172.962,117.207Z" transform="translate(-166.981 -78.203)" fill="#ffb3c5"/>
          <path id="XMLID_1203_" d="M172.509,118.179a8.319,8.319,0,0,0-2.9,6.508h0a8.171,8.171,0,0,0,2.9,6.508Z" transform="translate(-166.528 -78.059)" fill="#fc87a3"/>
          <path id="XMLID_11_" d="M172.962,117.207v15.247c-3.322,0-5.98-3.393-5.98-7.623h0C166.934,120.6,169.639,117.207,172.962,117.207Z" transform="translate(-166.981 -78.203)" fill="none" stroke="#000" stroke-linecap="round" stroke-linejoin="round" stroke-miterlimit="10" stroke-width="1.62"/>
          <path id="XMLID_7_" d="M196.839,128.02l-1.993,6.368c0,.7,2.326.139,4.7.7" transform="translate(-162.191 -76.605)" fill="none" stroke="#000" stroke-linecap="round" stroke-linejoin="round" stroke-miterlimit="10" stroke-width="1.62"/>
          <path id="XMLID_16_" d="M207.664,138.388c.712,4.834-5.648,9.111-10.632,8.228" transform="translate(-161.815 -75.073)" fill="none" stroke="#000" stroke-linecap="round" stroke-linejoin="round" stroke-miterlimit="10" stroke-width="1.215"/>
          <g id="XMLID_19_" transform="translate(18.226 37.563)">
            <ellipse id="XMLID_14_" cx="1.993" cy="2.092" rx="1.993" ry="2.092" stroke-width="0.81" transform="translate(4.889 4.277)" stroke="#000" stroke-linecap="round" stroke-linejoin="round" stroke-miterlimit="10" fill="none"/>
            <ellipse id="XMLID_20_" cx="1.993" cy="2.092" rx="1.993" ry="2.092" transform="translate(4.889 4.277)"/>
            <path id="XMLID_17_" d="M182.533,117.9c1-1.162,3.322-1.952,6.075-1.952a9.836,9.836,0,0,1,5.268,1.3" transform="translate(-182.533 -115.951)" fill="none" stroke="#000" stroke-linecap="round" stroke-linejoin="round" stroke-miterlimit="10" stroke-width="1.215"/>
          </g>
          <g id="XMLID_13_" transform="translate(42.479 37.563)">
            <ellipse id="XMLID_22_" cx="1.993" cy="2.092" rx="1.993" ry="2.092" stroke-width="0.81" transform="translate(2.468 4.277)" stroke="#000" stroke-linecap="round" stroke-linejoin="round" stroke-miterlimit="10" fill="none"/>
            <ellipse id="XMLID_21_" cx="1.993" cy="2.092" rx="1.993" ry="2.092" transform="translate(2.468 4.277)"/>
            <path id="XMLID_18_" d="M214.573,117.9c-1-1.162-3.322-1.952-6.075-1.952a9.836,9.836,0,0,0-5.268,1.3" transform="translate(-203.229 -115.951)" fill="none" stroke="#000" stroke-linecap="round" stroke-linejoin="round" stroke-miterlimit="10" stroke-width="1.215"/>
          </g>
        </g>
      </g>
    </g>
  </g>
</svg>
