<svg xmlns="http://www.w3.org/2000/svg" width="42" height="42" viewBox="0 0 42 42">
  <g id="slider-img-footer1" transform="translate(-0.499 0.435)">
    <path id="Caminho_2243" data-name="Caminho 2243" d="M21,0A21,21,0,1,1,0,21,21,21,0,0,1,21,0Z" transform="translate(0.499 -0.435)" fill="rgba(255,67,17,0.32)"/>
    <g id="_706955771543238882" data-name="706955771543238882" transform="translate(13.499 10.565)">
      <path id="Caminho_2148" data-name="Caminho 2148" d="M14,2H6A2,2,0,0,0,4,4V20a2,2,0,0,0,2,2H18a2,2,0,0,0,2-2V8Z" transform="translate(-4 -2)" fill="none" stroke="#ff4311" stroke-linecap="round" stroke-linejoin="round" stroke-width="2"/>
      <path id="Caminho_2149" data-name="Caminho 2149" d="M14,2V8h6" transform="translate(-4 -2)" fill="none" stroke="#ff4311" stroke-linecap="round" stroke-linejoin="round" stroke-width="2"/>
      <line id="Linha_6" data-name="Linha 6" x1="8" transform="translate(4 11)" fill="none" stroke="#ff4311" stroke-linecap="round" stroke-linejoin="round" stroke-width="2"/>
      <line id="Linha_7" data-name="Linha 7" x1="8" transform="translate(4 15)" fill="none" stroke="#ff4311" stroke-linecap="round" stroke-linejoin="round" stroke-width="2"/>
      <path id="Caminho_2150" data-name="Caminho 2150" d="M10,9H8" transform="translate(-4 -2)" fill="none" stroke="#ff4311" stroke-linecap="round" stroke-linejoin="round" stroke-width="2"/>
    </g>
  </g>
</svg>
